<?xml version="1.0" encoding="UTF-8" standalone="no"?>
<!-- Created with Inkscape (http://www.inkscape.org/) -->

<svg
   xmlns:dc="http://purl.org/dc/elements/1.1/"
   xmlns:cc="http://creativecommons.org/ns#"
   xmlns:rdf="http://www.w3.org/1999/02/22-rdf-syntax-ns#"
   xmlns:svg="http://www.w3.org/2000/svg"
   xmlns="http://www.w3.org/2000/svg"
   xmlns:sodipodi="http://sodipodi.sourceforge.net/DTD/sodipodi-0.dtd"
   xmlns:inkscape="http://www.inkscape.org/namespaces/inkscape"
   sodipodi:docname="FBDShaft.svg"
   inkscape:version="0.91 r13725"
   version="1.1"
   id="svg2"
   viewBox="0 0 289.48807 262.96282"
   height="74.213951mm"
   width="81.699966mm">
  <sodipodi:namedview
     inkscape:window-maximized="1"
     inkscape:window-y="847"
     inkscape:window-x="-9"
     inkscape:window-height="1003"
     inkscape:window-width="1920"
     inkscape:snap-object-midpoints="true"
     showgrid="false"
     inkscape:current-layer="g5818"
     inkscape:document-units="px"
     inkscape:cy="127.62449"
     inkscape:cx="139.3833"
     inkscape:zoom="2.5600001"
     inkscape:pageshadow="2"
     inkscape:pageopacity="0.0"
     borderopacity="1.0"
     bordercolor="#666666"
     pagecolor="#ffffff"
     id="base"
     fit-margin-top="0"
     fit-margin-left="0"
     fit-margin-right="0"
     fit-margin-bottom="0" />
  <defs
     id="defs4">
    <marker
       inkscape:stockid="Arrow1Lend"
       orient="auto"
       refY="0"
       refX="0"
       id="marker5611"
       style="overflow:visible"
       inkscape:isstock="true">
      <path
         id="path4223"
         d="M 0,0 5,-5 -12.5,0 5,5 0,0 Z"
         style="fill:#000000;fill-opacity:1;fill-rule:evenodd;stroke:#000000;stroke-width:1pt;stroke-opacity:1"
         transform="matrix(-0.8,0,0,-0.8,-10,0)"
         inkscape:connector-curvature="0" />
    </marker>
    <marker
       inkscape:stockid="Arrow1Lstart"
       orient="auto"
       refY="0"
       refX="0"
       id="marker5555"
       style="overflow:visible"
       inkscape:isstock="true">
      <path
         id="path5557"
         d="M 0,0 5,-5 -12.5,0 5,5 0,0 Z"
         style="fill:#000000;fill-opacity:1;fill-rule:evenodd;stroke:#000000;stroke-width:1pt;stroke-opacity:1"
         transform="matrix(0.8,0,0,0.8,10,0)"
         inkscape:connector-curvature="0" />
    </marker>
    <marker
       inkscape:isstock="true"
       style="overflow:visible"
       id="marker5651"
       refX="0"
       refY="0"
       orient="auto"
       inkscape:stockid="Arrow1Lend">
      <path
         transform="matrix(-0.8,0,0,-0.8,-10,0)"
         style="fill:#000000;fill-opacity:1;fill-rule:evenodd;stroke:#000000;stroke-width:1pt;stroke-opacity:1"
         d="M 0,0 5,-5 -12.5,0 5,5 0,0 Z"
         id="path5653"
         inkscape:connector-curvature="0" />
    </marker>
    <marker
       inkscape:isstock="true"
       style="overflow:visible"
       id="Arrow1Lend"
       refX="0"
       refY="0"
       orient="auto"
       inkscape:stockid="Arrow1Lend">
      <path
         transform="matrix(-0.8,0,0,-0.8,-10,0)"
         style="fill:#000000;fill-opacity:1;fill-rule:evenodd;stroke:#000000;stroke-width:1pt;stroke-opacity:1"
         d="M 0,0 5,-5 -12.5,0 5,5 0,0 Z"
         id="path5385"
         inkscape:connector-curvature="0" />
    </marker>
    <marker
       inkscape:stockid="Arrow1Lstart"
       orient="auto"
       refY="0"
       refX="0"
       id="Arrow1Lstart"
       style="overflow:visible"
       inkscape:isstock="true">
      <path
         id="path4168"
         d="M 0,0 5,-5 -12.5,0 5,5 0,0 Z"
         style="fill:#000000;fill-opacity:1;fill-rule:evenodd;stroke:#000000;stroke-width:1pt;stroke-opacity:1"
         transform="matrix(0.8,0,0,0.8,10,0)"
         inkscape:connector-curvature="0" />
    </marker>
    <marker
       inkscape:stockid="Arrow1Lstart"
       orient="auto"
       refY="0"
       refX="0"
       id="Arrow1Lstart-8"
       style="overflow:visible"
       inkscape:isstock="true">
      <path
         id="path4168-6"
         d="M 0,0 5,-5 -12.5,0 5,5 0,0 Z"
         style="fill:#000000;fill-opacity:1;fill-rule:evenodd;stroke:#000000;stroke-width:1pt;stroke-opacity:1"
         transform="matrix(0.8,0,0,0.8,10,0)"
         inkscape:connector-curvature="0" />
    </marker>
    <marker
       inkscape:stockid="Arrow1Lstart"
       orient="auto"
       refY="0"
       refX="0"
       id="Arrow1Lstart-88"
       style="overflow:visible"
       inkscape:isstock="true">
      <path
         id="path4168-62"
         d="M 0,0 5,-5 -12.5,0 5,5 0,0 Z"
         style="fill:#000000;fill-opacity:1;fill-rule:evenodd;stroke:#000000;stroke-width:1pt;stroke-opacity:1"
         transform="matrix(0.8,0,0,0.8,10,0)"
         inkscape:connector-curvature="0" />
    </marker>
    <marker
       inkscape:stockid="Arrow1Lstart"
       orient="auto"
       refY="0"
       refX="0"
       id="Arrow1Lstart-6"
       style="overflow:visible"
       inkscape:isstock="true">
      <path
         id="path4168-61"
         d="M 0,0 5,-5 -12.5,0 5,5 0,0 Z"
         style="fill:#000000;fill-opacity:1;fill-rule:evenodd;stroke:#000000;stroke-width:1pt;stroke-opacity:1"
         transform="matrix(0.8,0,0,0.8,10,0)"
         inkscape:connector-curvature="0" />
    </marker>
  </defs>
  <metadata
     id="metadata7">
    <rdf:RDF>
      <cc:Work
         rdf:about="">
        <dc:format>image/svg+xml</dc:format>
        <dc:type
           rdf:resource="http://purl.org/dc/dcmitype/StillImage" />
        <dc:title></dc:title>
      </cc:Work>
    </rdf:RDF>
  </metadata>
  <g
     inkscape:label="Layer 1"
     inkscape:groupmode="layer"
     id="layer1"
     transform="translate(-229.29095,-550.67743)">
    <circle
       style="fill:#ffffff;fill-opacity:1;stroke:#000000;stroke-width:2.34146333;stroke-opacity:1"
       id="path4148"
       cx="374.64288"
       cy="678.79077"
       r="81.114983" />
    <path
       transform="matrix(0.98882768,0.14906316,-0.14906316,0.98882768,0,0)"
       sodipodi:open="true"
       style="fill:none;fill-opacity:1;stroke:#000000;stroke-width:0.93400002;stroke-miterlimit:4;stroke-dasharray:none;stroke-opacity:1;marker-end:url(#marker5651)"
       id="path4162"
       sodipodi:type="arc"
       sodipodi:cx="471.63995"
       sodipodi:cy="615.36163"
       sodipodi:rx="108.96174"
       sodipodi:ry="106.46174"
       sodipodi:start="3.4833199"
       sodipodi:end="4.8664182"
       d="M 368.97868,579.68471 A 108.96174,106.46174 0 0 1 488.35696,510.1603" />
    <path
       sodipodi:open="true"
       transform="matrix(-0.02893714,-0.99958123,0.99958123,-0.02893714,0,0)"
       style="fill:none;fill-opacity:1;stroke:#000000;stroke-width:0.93400002;stroke-miterlimit:4;stroke-dasharray:none;stroke-opacity:1;marker-start:url(#Arrow1Lstart-8)"
       id="path4162-3"
       sodipodi:type="arc"
       sodipodi:cx="-689.3476"
       sodipodi:cy="354.84372"
       sodipodi:rx="108.96174"
       sodipodi:ry="106.46174"
       sodipodi:start="3.7311344"
       sodipodi:end="4.9753539"
       d="m -779.91611,295.6531 a 108.96174,106.46174 0 0 1 118.89254,-43.61134" />
    <path
       cx="0"
       cy="0"
       r="0"
       id="path5030"
       style="fill:none;fill-opacity:1;stroke:#000000;stroke-width:0.93400002;stroke-miterlimit:4;stroke-dasharray:none;stroke-opacity:1"
       d=""
       inkscape:connector-curvature="0" />
    <path
       transform="matrix(-0.11195765,0.99371298,-0.99371298,-0.11195765,0,0)"
       sodipodi:open="true"
       style="fill:none;fill-opacity:1;stroke:#000000;stroke-width:0.93400002;stroke-miterlimit:4;stroke-dasharray:none;stroke-opacity:1;marker-end:url(#marker5611)"
       id="path4162-2"
       sodipodi:type="arc"
       sodipodi:cx="632.57904"
       sodipodi:cy="-448.28333"
       sodipodi:rx="108.96174"
       sodipodi:ry="106.46174"
       sodipodi:start="3.6131363"
       sodipodi:end="4.8664182"
       d="m 535.5085,-496.64485 a 108.96174,106.46174 0 0 1 113.78755,-56.83981" />
    <path
       transform="matrix(-0.99611964,-0.08800949,0.08800949,-0.99611964,0,0)"
       sodipodi:open="true"
       style="fill:none;fill-opacity:1;stroke:#000000;stroke-width:0.93400002;stroke-miterlimit:4;stroke-dasharray:none;stroke-opacity:1;marker-start:url(#Arrow1Lstart-6)"
       id="path4162-0"
       sodipodi:type="arc"
       sodipodi:cx="-432.92917"
       sodipodi:cy="-643.18469"
       sodipodi:rx="108.96174"
       sodipodi:ry="106.46174"
       sodipodi:start="3.6131363"
       sodipodi:end="4.8664182"
       d="m -529.99971,-691.54622 a 108.96174,106.46174 0 0 1 113.78755,-56.8398" />
    <g
       id="g5818">
      <g
         id="g5897"
         transform="matrix(0.5774699,0,0,0.5774699,310.97133,428.22384)" />
      <g
         transform="matrix(0.41002989,0,0,0.41002989,357.83826,479.18955)"
         id="g4815">
        <g
           style="font-style:normal;font-variant:normal;font-weight:normal;font-stretch:normal;letter-spacing:normal;word-spacing:normal;text-anchor:start;fill:none;fill-opacity:1;fill-rule:evenodd;stroke:#000000;stroke-linecap:butt;stroke-linejoin:miter;stroke-miterlimit:10.43299961;stroke-dasharray:none;stroke-dashoffset:0;stroke-opacity:1"
           id="g4817"
           transform="matrix(1.0629921,0,0,-1.0629921,-186.02362,789.27165)"
           xml:space="preserve"
           stroke-miterlimit="10.433"
           font-style="normal"
           font-variant="normal"
           font-weight="normal"
           font-stretch="normal"
           font-size-adjust="none"
           letter-spacing="normal"
           word-spacing="normal"><path
             style="fill:#000000;stroke-width:0"
             inkscape:connector-curvature="0"
             d="m 482.47,436.59 0.04,0.15 0.04,0.14 0.03,0.14 0.04,0.13 0.03,0.12 0.04,0.12 0.04,0.11 0.04,0.11 0.04,0.1 0.04,0.09 0.05,0.09 0.05,0.08 0.06,0.08 0.06,0.07 0.07,0.07 0.08,0.06 0.08,0.06 0.09,0.05 0.09,0.05 0.11,0.04 0.11,0.04 0.13,0.04 0.13,0.03 0.07,0.01 0.08,0.02 0.07,0.01 0.08,0.01 0.08,0.01 0.09,0.01 0.09,0.01 0.09,0.01 0.09,0.01 0.1,0 0.1,0.01 0.11,0 0.1,0.01 0.11,0 0.12,0 0.12,0 0.12,0 0.13,0 c 0.79,0 1.34,0 1.34,0.96 0,0.43 -0.3,0.59 -0.69,0.59 -1.25,0 -4.28,-0.16 -5.53,-0.16 -1.64,0 -5.69,0.16 -7.33,0.16 -0.45,0 -1.04,0 -1.04,-1 0,-0.55 0.4,-0.55 1.7,-0.55 1.14,0 1.64,0 2.88,-0.09 1.2,-0.16 1.54,-0.31 1.54,-1 0,-0.3 -0.09,-0.66 -0.19,-1.05 l -5.73,-22.87 c -1.2,-4.83 -4.58,-7.47 -7.17,-7.47 -1.3,0 -3.94,0.5 -4.74,3.09 0.14,-0.04 0.5,-0.04 0.6,-0.04 1.94,0 3.23,1.68 3.23,3.18 0,1.6 -1.34,2.08 -2.19,2.08 -0.89,0 -3.34,-0.59 -3.34,-3.98 0,-3.08 2.64,-5.42 6.58,-5.42 4.59,0 9.76,3.28 11.01,8.21 z"
             id="path4819" /><path
             style="fill:#000000;stroke-width:0"
             inkscape:connector-curvature="0"
             d="m 498.14,411.86 -0.09,-0.03 -0.08,-0.02 -0.08,-0.03 -0.08,-0.02 -0.07,-0.04 -0.08,-0.03 -0.07,-0.04 -0.07,-0.04 -0.06,-0.04 -0.07,-0.04 -0.06,-0.05 -0.06,-0.05 -0.05,-0.05 -0.06,-0.05 -0.05,-0.05 -0.05,-0.06 -0.04,-0.05 -0.05,-0.06 -0.04,-0.06 -0.04,-0.06 -0.03,-0.06 -0.03,-0.06 -0.03,-0.06 -0.03,-0.06 -0.02,-0.07 -0.02,-0.06 -0.02,-0.07 -0.02,-0.06 -0.01,-0.07 -0.01,-0.06 0,-0.07 0,-0.06 c 0,-0.81 0.7,-1.12 1.15,-1.12 0.35,0 1.68,0.21 1.68,1.98 0,2.27 -2.5,3.03 -4.63,3.03 -5.44,0 -6.42,-4 -6.42,-5.08 0,-1.29 0.73,-2.12 1.22,-2.54 0.9,-0.71 1.53,-0.83 3.94,-1.25 0.73,-0.14 2.96,-0.57 2.96,-2.3 0,-0.59 -0.39,-1.92 -1.84,-2.8 -1.36,-0.76 -3.08,-0.76 -3.48,-0.76 -1.41,0 -3.39,0.31 -4.19,1.47 1.15,0.14 1.92,1 1.92,1.98 0,0.87 -0.62,1.28 -1.36,1.28 -1.01,0 -2.03,-0.8 -2.03,-2.33 0,-2.09 2.23,-3.37 5.61,-3.37 6.42,0 7.61,4.39 7.61,5.75 0,3.2 -3.53,3.83 -4.81,4.08 -0.32,0.06 -1.19,0.2 -1.39,0.26 -1.3,0.25 -1.93,0.99 -1.93,1.75 0,0.8 0.63,1.74 1.39,2.24 0.94,0.59 2.16,0.65 2.75,0.65 0.74,0 2.55,-0.11 3.32,-1.29 z"
             id="path4821" /><path
             style="fill:#000000;stroke-width:0"
             inkscape:connector-curvature="0"
             d="m 518.67,450.13 0,0.11 -0.01,0.11 -0.02,0.11 -0.02,0.11 -0.02,0.11 -0.03,0.12 -0.04,0.11 -0.04,0.1 -0.05,0.11 -0.05,0.11 -0.05,0.1 -0.06,0.1 -0.07,0.1 -0.07,0.1 -0.07,0.09 -0.08,0.09 -0.08,0.09 -0.09,0.08 -0.09,0.08 -0.1,0.08 -0.1,0.07 -0.11,0.06 -0.1,0.06 -0.12,0.06 -0.11,0.05 -0.12,0.04 -0.12,0.04 -0.13,0.03 -0.13,0.03 -0.13,0.01 -0.14,0.02 -0.14,0 c -1.39,0 -2.5,-1.09 -2.5,-2.48 0,-1.41 1.11,-2.5 2.5,-2.5 1.5,0 2.49,1.29 2.49,2.5 z"
             id="path4823" /><path
             style="fill:#000000;stroke-width:0"
             inkscape:connector-curvature="0"
             d="m 528.29,450.13 0,0.12 -0.01,0.13 -0.02,0.13 -0.02,0.12 -0.02,0.12 -0.04,0.12 -0.04,0.12 -0.04,0.11 -0.05,0.11 -0.05,0.11 -0.06,0.1 -0.07,0.1 -0.07,0.1 -0.07,0.09 -0.08,0.09 -0.08,0.09 -0.09,0.08 -0.09,0.08 -0.09,0.07 -0.1,0.07 -0.1,0.06 -0.1,0.06 -0.11,0.06 -0.11,0.05 -0.12,0.04 -0.11,0.04 -0.12,0.03 -0.13,0.03 -0.12,0.02 -0.13,0.02 -0.13,0.01 -0.13,0 c -1.48,0 -2.48,-1.3 -2.48,-2.48 0,-1.21 1,-2.5 2.48,-2.5 1.41,0 2.5,1.09 2.5,2.5 z"
             id="path4825" /><path
             style="fill:#000000;stroke-width:0"
             inkscape:connector-curvature="0"
             d="m 527.15,431.11 0,0.31 -0.01,0.34 -0.01,0.36 -0.03,0.37 -0.03,0.39 -0.04,0.39 -0.04,0.41 -0.06,0.41 -0.07,0.42 -0.07,0.43 -0.09,0.42 -0.1,0.43 -0.12,0.42 -0.12,0.42 -0.14,0.41 -0.16,0.41 -0.16,0.4 -0.19,0.38 -0.2,0.37 -0.22,0.36 -0.23,0.34 -0.25,0.32 -0.27,0.3 -0.29,0.27 -0.31,0.25 -0.17,0.12 -0.16,0.1 -0.18,0.1 -0.17,0.1 -0.19,0.08 -0.19,0.08 -0.19,0.07 -0.2,0.06 -0.21,0.05 -0.21,0.05 -0.22,0.03 -0.22,0.02 -0.23,0.02 -0.23,0 -0.05,-1.09 c 2.44,0 2.73,-3.19 2.73,-6.03 0,-2.44 -0.38,-4.99 -1.59,-9.92 l -10.4,0 c 0.84,3.2 1.84,7.18 3.82,10.72 1.36,2.43 3.19,5.23 5.44,5.23 l 0.05,1.09 c -6.92,0 -14.6,-14.04 -14.6,-25.45 0,-4.69 1.44,-10.22 5.99,-10.22 l 0,1.1 c -1.66,0 -2.7,1.45 -2.7,6.07 0,2.1 0.29,4.99 1.59,9.86 l 10.37,0 c -0.54,-2.28 -1.59,-6.51 -3.5,-10.11 -1.73,-3.39 -3.62,-5.82 -5.76,-5.82 l 0,-1.1 c 7.01,0 14.59,14.3 14.59,25.46 z"
             id="path4827" /><path
             style="fill:#000000;stroke-width:0"
             inkscape:connector-curvature="0"
             d="m 542.9,411.86 -0.09,-0.03 -0.08,-0.02 -0.08,-0.03 -0.08,-0.02 -0.07,-0.04 -0.08,-0.03 -0.07,-0.04 -0.07,-0.04 -0.06,-0.04 -0.07,-0.04 -0.06,-0.05 -0.06,-0.05 -0.06,-0.05 -0.05,-0.05 -0.05,-0.05 -0.05,-0.06 -0.05,-0.05 -0.04,-0.06 -0.04,-0.06 -0.04,-0.06 -0.03,-0.06 -0.04,-0.06 -0.03,-0.06 -0.02,-0.06 -0.03,-0.07 -0.02,-0.06 -0.01,-0.07 -0.02,-0.06 -0.01,-0.07 -0.01,-0.06 0,-0.07 0,-0.06 c 0,-0.81 0.7,-1.12 1.15,-1.12 0.35,0 1.67,0.21 1.67,1.98 0,2.27 -2.5,3.03 -4.62,3.03 -5.44,0 -6.42,-4 -6.42,-5.08 0,-1.29 0.73,-2.12 1.22,-2.54 0.9,-0.71 1.53,-0.83 3.93,-1.25 0.74,-0.14 2.97,-0.57 2.97,-2.3 0,-0.59 -0.39,-1.92 -1.84,-2.8 -1.36,-0.76 -3.08,-0.76 -3.49,-0.76 -1.4,0 -3.39,0.31 -4.18,1.47 1.15,0.14 1.92,1 1.92,1.98 0,0.87 -0.63,1.28 -1.36,1.28 -1.02,0 -2.03,-0.8 -2.03,-2.33 0,-2.09 2.23,-3.37 5.61,-3.37 6.42,0 7.61,4.39 7.61,5.75 0,3.2 -3.54,3.83 -4.82,4.08 -0.31,0.06 -1.18,0.2 -1.39,0.26 -1.29,0.25 -1.92,0.99 -1.92,1.75 0,0.8 0.63,1.74 1.39,2.24 0.94,0.59 2.16,0.65 2.75,0.65 0.74,0 2.55,-0.11 3.32,-1.29 z"
             id="path4829" /></g>      </g>
      <g
         id="g4921"
         transform="matrix(0.57321443,0,0,0.57321443,57.547336,530.32882)">
        <g
           word-spacing="normal"
           letter-spacing="normal"
           font-size-adjust="none"
           font-stretch="normal"
           font-weight="normal"
           font-variant="normal"
           font-style="normal"
           stroke-miterlimit="10.433"
           xml:space="preserve"
           transform="matrix(1.0629921,0,0,-1.0629921,-186.02362,789.27165)"
           id="g4923"
           style="font-style:normal;font-variant:normal;font-weight:normal;font-stretch:normal;letter-spacing:normal;word-spacing:normal;text-anchor:start;fill:none;fill-opacity:1;fill-rule:evenodd;stroke:#000000;stroke-linecap:butt;stroke-linejoin:miter;stroke-miterlimit:10.43299961;stroke-dasharray:none;stroke-dashoffset:0;stroke-opacity:1"><path
             id="path4925"
             d="m 470.16,424.78 8.38,0 c 0.65,0 2.43,0 2.43,1.7 0,1.19 -1.04,1.19 -1.98,1.19 l -13.95,0 c -1,0 -2.94,0 -5.13,-2.35 -1.66,-1.78 -3.05,-4.17 -3.05,-4.48 0,-0.05 0,-0.48 0.6,-0.48 0.4,0 0.5,0.18 0.79,0.59 2.46,3.83 5.29,3.83 6.33,3.83 l 4.14,0 -4.89,-15.99 c -0.19,-0.59 -0.48,-1.64 -0.48,-1.84 0,-0.55 0.34,-1.34 1.44,-1.34 1.64,0 1.89,1.39 2.04,2.14 z"
             inkscape:connector-curvature="0"
             style="fill:#000000;stroke-width:0" /><path
             id="path4927"
             d="m 483.86,401.48 -0.03,-0.11 -0.02,-0.1 -0.03,-0.1 -0.03,-0.09 -0.03,-0.09 -0.03,-0.09 -0.03,-0.08 -0.03,-0.07 -0.04,-0.07 -0.04,-0.07 -0.04,-0.06 -0.05,-0.06 -0.05,-0.05 -0.06,-0.05 -0.06,-0.05 -0.08,-0.04 -0.07,-0.04 -0.09,-0.03 -0.09,-0.04 -0.1,-0.03 -0.11,-0.02 -0.06,-0.02 -0.06,-0.01 -0.07,-0.01 -0.06,-0.01 -0.07,-0.01 -0.07,-0.01 -0.08,0 -0.08,-0.01 -0.08,-0.01 -0.08,0 -0.09,-0.01 -0.09,-0.01 -0.09,0 -0.09,0 -0.1,-0.01 -0.11,0 -0.1,0 -0.11,0 -0.11,-0.01 -0.12,0 -0.12,0 -0.12,0 c -0.58,0 -1.04,0 -1.04,-0.73 0,-0.52 0.41,-0.52 1.04,-0.52 l 13.48,0 c 5.86,0 10.36,4 10.36,7.45 0,2.49 -2.27,4.61 -5.97,4.99 4.22,0.76 7.75,3.42 7.75,6.41 0,2.65 -2.69,4.95 -7.22,4.95 l -0.56,-1.25 c 3.56,0 4.36,-2.35 4.36,-3.66 0,-2.83 -3.17,-6.03 -7.85,-6.03 l -5.7,0 -0.25,-0.98 7.39,0 c 3.27,0 4.53,-2.16 4.53,-4.18 0,-3.45 -3.53,-6.45 -7.73,-6.45 l -5.63,0 c -1.07,0 -1.11,0.05 -1.11,0.36 0,0.03 0,0.2 0.15,0.72 l 2.4,9.55 0.25,0.98 2.13,8.5 c 0.26,1.08 0.31,1.19 1.76,1.19 l 5.3,0 0.56,1.25 -12.69,0 c -0.65,0 -1.11,0 -1.11,-0.77 0,-0.48 0.43,-0.48 1.11,-0.48 0.04,0 0.71,0 1.33,-0.08 0.74,-0.06 0.8,-0.14 0.8,-0.48 0,-0.07 0,-0.24 -0.14,-0.77 z"
             inkscape:connector-curvature="0"
             style="fill:#000000;stroke-width:0" /><path
             id="path4929"
             d="m 519.98,403.14 -0.04,-0.01 -0.03,-0.01 -0.04,-0.02 -0.04,-0.01 -0.03,-0.02 -0.04,-0.01 -0.06,-0.03 -0.07,-0.04 -0.06,-0.04 -0.05,-0.03 -0.05,-0.04 -0.05,-0.05 -0.04,-0.04 -0.05,-0.04 -0.03,-0.05 -0.04,-0.04 -0.03,-0.05 -0.03,-0.05 -0.03,-0.04 -0.02,-0.05 -0.03,-0.05 -0.02,-0.04 -0.02,-0.05 -0.01,-0.04 -0.01,-0.05 -0.02,-0.04 -0.01,-0.04 -0.01,-0.04 0,-0.04 -0.01,-0.04 0,-0.03 -0.01,-0.04 0,-0.03 0,-0.02 0,-0.03 c 0,-0.62 0.52,-0.89 0.94,-0.89 0.29,0 1.33,0.22 1.33,1.53 0,1.67 -1.97,2.2 -3.85,2.2 -4.2,0 -5,-2.57 -5,-3.46 0,-0.89 0.52,-1.43 0.97,-1.77 0.69,-0.5 1.44,-0.59 2.77,-0.83 1.56,-0.25 3.31,-0.51 3.31,-1.79 0,-0.02 0,-2.58 -4.59,-2.58 -0.94,0 -2.49,0.06 -3.29,0.84 0.89,0.2 1.3,0.92 1.3,1.52 0,0.7 -0.53,1.01 -1.08,1.01 -0.84,0 -1.59,-0.67 -1.59,-1.78 0,-2.45 3.89,-2.45 4.61,-2.45 5.11,0 5.98,2.95 5.98,3.97 0,2.23 -2.73,2.67 -4.03,2.89 -1.78,0.26 -3,0.47 -3,1.5 0,0.01 0,2.08 3.6,2.08 0.64,0 1.96,-0.05 2.6,-0.74 z"
             inkscape:connector-curvature="0"
             style="fill:#000000;stroke-width:0" /></g>      </g>
      <g
         id="g5230"
         transform="matrix(0.58103844,0,0,0.58103844,225.70351,598.04708)">
        <g
           id="content"
           transform="matrix(1.0629921,0,0,-1.0629921,-186.02362,789.27165)"
           xml:space="preserve"
           stroke-miterlimit="10.433"
           font-style="normal"
           font-variant="normal"
           font-weight="normal"
           font-stretch="normal"
           font-size-adjust="none"
           letter-spacing="normal"
           word-spacing="normal"
           style="font-style:normal;font-variant:normal;font-weight:normal;font-stretch:normal;letter-spacing:normal;word-spacing:normal;text-anchor:start;fill:none;fill-opacity:1;fill-rule:evenodd;stroke:#000000;stroke-linecap:butt;stroke-linejoin:miter;stroke-miterlimit:10.43299961;stroke-dasharray:none;stroke-dashoffset:0;stroke-opacity:1"><path
             d="m 470.16,424.78 8.38,0 c 0.65,0 2.43,0 2.43,1.7 0,1.19 -1.04,1.19 -1.98,1.19 l -13.95,0 c -1,0 -2.94,0 -5.13,-2.35 -1.66,-1.78 -3.05,-4.17 -3.05,-4.48 0,-0.05 0,-0.48 0.6,-0.48 0.4,0 0.5,0.18 0.79,0.59 2.46,3.83 5.29,3.83 6.33,3.83 l 4.14,0 -4.89,-15.99 c -0.19,-0.59 -0.48,-1.64 -0.48,-1.84 0,-0.55 0.34,-1.34 1.44,-1.34 1.64,0 1.89,1.39 2.04,2.14 z"
             id="path5233"
             inkscape:connector-curvature="0"
             style="fill:#000000;stroke-width:0" /><path
             d="m 506.61,422.81 0,0.02 0,0.01 0,0.02 0,0.02 -0.01,0.02 0,0.01 0,0.02 -0.01,0.02 -0.01,0.02 0,0.02 -0.01,0.02 -0.01,0.02 -0.01,0.02 -0.01,0.01 -0.01,0.02 -0.01,0.02 -0.02,0.02 -0.01,0.01 -0.02,0.02 -0.02,0.01 -0.01,0.02 -0.02,0.01 -0.02,0.01 -0.02,0.02 -0.03,0.01 -0.02,0 -0.03,0.01 -0.02,0.01 -0.02,0 -0.01,0 -0.01,0.01 -0.02,0 -0.01,0 -0.02,0 -0.01,0 -0.02,0 c -0.25,0 -0.31,-0.08 -0.62,-0.42 l -2.55,-2.69 c -0.31,0.42 -2.27,3.11 -6.55,3.11 -8.47,0 -16.76,-7.5 -16.76,-15.37 0,-5.39 4.11,-9.83 10.79,-9.83 3.08,0 6.32,0.81 8.13,2.76 0.34,-0.76 1.29,-2.03 1.7,-2.03 0.31,0 0.39,0.14 0.56,0.88 l 0.66,2.69 c 0.17,0.62 0.67,2.71 0.77,3.12 0.42,1.58 0.45,1.61 2.51,1.64 0.25,0 0.77,0 0.77,0.74 0,0.34 -0.25,0.51 -0.52,0.51 -1.16,0 -2.62,-0.12 -3.84,-0.12 -0.86,0 -2.02,0 -2.89,0.03 -0.88,0.03 -1.88,0.09 -2.75,0.09 -0.25,0 -0.77,0 -0.77,-0.76 0,-0.49 0.38,-0.49 1.25,-0.49 0.67,0 1.36,0 2.03,-0.06 1.11,-0.11 1.14,-0.25 1.14,-0.67 0,-0.14 0,-0.21 -0.23,-1.11 -0.25,-0.97 -0.64,-2.55 -0.78,-2.89 -1,-2.13 -4.25,-3.07 -6.97,-3.07 -3.49,0 -8.05,1.68 -8.05,7.57 0,3.72 1.75,8.39 4.33,11 3.59,3.56 7.31,4.11 9.27,4.11 4.04,0 6.4,-2.93 6.4,-6.83 0,-0.97 -0.09,-1.22 -0.09,-1.42 0,-0.46 0.45,-0.46 0.62,-0.46 0.57,0 0.57,0.11 0.74,0.77 z"
             id="path5235"
             inkscape:connector-curvature="0"
             style="fill:#000000;stroke-width:0" /><path
             d="m 520.82,403.14 -0.04,-0.01 -0.03,-0.01 -0.04,-0.02 -0.04,-0.01 -0.03,-0.02 -0.04,-0.01 -0.06,-0.03 -0.07,-0.04 -0.06,-0.04 -0.05,-0.03 -0.05,-0.04 -0.05,-0.05 -0.04,-0.04 -0.05,-0.04 -0.03,-0.05 -0.04,-0.04 -0.03,-0.05 -0.03,-0.05 -0.03,-0.04 -0.02,-0.05 -0.03,-0.05 -0.02,-0.04 -0.02,-0.05 -0.01,-0.04 -0.01,-0.05 -0.02,-0.04 -0.01,-0.04 -0.01,-0.04 0,-0.04 -0.01,-0.04 0,-0.03 -0.01,-0.04 0,-0.03 0,-0.02 0,-0.03 c 0,-0.62 0.51,-0.89 0.94,-0.89 0.29,0 1.32,0.22 1.32,1.53 0,1.67 -1.96,2.2 -3.84,2.2 -4.2,0 -5,-2.57 -5,-3.46 0,-0.89 0.52,-1.43 0.97,-1.77 0.69,-0.5 1.44,-0.59 2.77,-0.83 1.56,-0.25 3.31,-0.51 3.31,-1.79 0,-0.02 0,-2.58 -4.59,-2.58 -0.94,0 -2.49,0.06 -3.29,0.84 0.89,0.2 1.3,0.92 1.3,1.52 0,0.7 -0.53,1.01 -1.08,1.01 -0.84,0 -1.59,-0.67 -1.59,-1.78 0,-2.45 3.89,-2.45 4.61,-2.45 5.11,0 5.98,2.95 5.98,3.97 0,2.23 -2.73,2.67 -4.03,2.89 -1.78,0.26 -3,0.47 -3,1.5 0,0.01 0,2.08 3.6,2.08 0.63,0 1.96,-0.05 2.6,-0.74 z"
             id="path5237"
             inkscape:connector-curvature="0"
             style="fill:#000000;stroke-width:0" /><path
             d="m 537.75,395.23 0.04,-0.06 0.04,-0.06 0.04,-0.07 0.05,-0.07 0.06,-0.07 0.05,-0.07 0.07,-0.07 0.07,-0.08 0.07,-0.07 0.08,-0.08 0.08,-0.07 0.09,-0.08 0.1,-0.07 0.1,-0.07 0.11,-0.07 0.11,-0.07 0.13,-0.07 0.12,-0.07 0.14,-0.06 0.14,-0.06 0.15,-0.06 0.15,-0.05 0.17,-0.05 0.17,-0.05 0.18,-0.04 0.18,-0.04 0.2,-0.03 0.2,-0.03 0.21,-0.02 0.22,-0.02 0.23,-0.01 0.24,0 c 4.73,0 6.01,7.98 6.01,9.17 0,1.72 -1,2.14 -1.42,2.14 -0.78,0 -1.47,-0.8 -1.47,-1.44 0,-0.47 0.32,-0.72 0.47,-0.84 0.7,-0.53 0.97,-1.17 0.97,-1.91 0,-0.64 -1.25,-6.26 -4.44,-6.26 -0.93,0 -2.39,0.29 -2.39,2.26 0,0.05 0,0.52 0.18,1.27 0.23,1 0.95,3.86 1.29,5.19 0.11,0.39 0.11,0.43 0.11,0.56 0,0.55 -0.45,0.87 -0.92,0.87 -0.41,0 -0.86,-0.22 -1.1,-0.64 -0.1,-0.17 -0.32,-1.09 -0.48,-1.65 -0.34,-1.41 -0.34,-1.47 -0.72,-2.86 -0.2,-0.8 -0.42,-1.74 -0.45,-2.42 0.08,-0.4 0,-0.52 -0.22,-0.94 -0.95,-1.64 -2,-1.64 -2.39,-1.64 -0.37,0 -1.33,0.04 -1.97,0.59 -0.64,0.58 -0.64,1.5 -0.64,1.77 0,1.01 0.31,2.04 1.36,4.57 0.2,0.5 0.36,0.88 0.36,1.3 0,1.22 -1.17,2.2 -2.72,2.2 -2.63,0 -4.01,-3.18 -4.01,-3.85 0,-0.36 0.4,-0.36 0.53,-0.36 0.42,0 0.43,0.12 0.56,0.5 0.53,1.71 1.7,2.86 2.81,2.86 0.48,0 0.75,-0.27 0.75,-0.94 0,-0.5 -0.09,-0.78 -0.42,-1.5 -1.31,-3.24 -1.31,-3.88 -1.31,-4.49 0,-2.86 2.56,-3.51 4.58,-3.51 0.5,0 1.88,0 3.1,1.79 z"
             id="path5239"
             inkscape:connector-curvature="0"
             style="fill:#000000;stroke-width:0" /></g>      </g>
      <g
         id="g5331"
         transform="matrix(0.58131484,0,0,0.58131484,93.864005,356.13355)">
        <g
           word-spacing="normal"
           letter-spacing="normal"
           font-size-adjust="none"
           font-stretch="normal"
           font-weight="normal"
           font-variant="normal"
           font-style="normal"
           stroke-miterlimit="10.433"
           xml:space="preserve"
           transform="matrix(1.0629921,0,0,-1.0629921,-186.02362,789.27165)"
           id="g5333"
           style="font-style:normal;font-variant:normal;font-weight:normal;font-stretch:normal;letter-spacing:normal;word-spacing:normal;text-anchor:start;fill:none;fill-opacity:1;fill-rule:evenodd;stroke:#000000;stroke-linecap:butt;stroke-linejoin:miter;stroke-miterlimit:10.43299961;stroke-dasharray:none;stroke-dashoffset:0;stroke-opacity:1"><path
             id="path5335"
             d="m 470.16,424.78 8.38,0 c 0.65,0 2.43,0 2.43,1.7 0,1.19 -1.04,1.19 -1.98,1.19 l -13.95,0 c -1,0 -2.94,0 -5.13,-2.35 -1.66,-1.78 -3.05,-4.17 -3.05,-4.48 0,-0.05 0,-0.48 0.6,-0.48 0.4,0 0.5,0.18 0.79,0.59 2.46,3.83 5.29,3.83 6.33,3.83 l 4.14,0 -4.89,-15.99 c -0.19,-0.59 -0.48,-1.64 -0.48,-1.84 0,-0.55 0.34,-1.34 1.44,-1.34 1.64,0 1.89,1.39 2.04,2.14 z"
             inkscape:connector-curvature="0"
             style="fill:#000000;stroke-width:0" /><path
             id="path5337"
             d="m 506.61,422.81 0,0.02 0,0.01 0,0.02 0,0.02 -0.01,0.02 0,0.01 0,0.02 -0.01,0.02 -0.01,0.02 0,0.02 -0.01,0.02 -0.01,0.02 -0.01,0.02 -0.01,0.01 -0.01,0.02 -0.01,0.02 -0.02,0.02 -0.01,0.01 -0.02,0.02 -0.02,0.01 -0.01,0.02 -0.02,0.01 -0.02,0.01 -0.02,0.02 -0.03,0.01 -0.02,0 -0.03,0.01 -0.02,0.01 -0.02,0 -0.01,0 -0.01,0.01 -0.02,0 -0.01,0 -0.02,0 -0.01,0 -0.02,0 c -0.25,0 -0.31,-0.08 -0.62,-0.42 l -2.55,-2.69 c -0.31,0.42 -2.27,3.11 -6.55,3.11 -8.47,0 -16.76,-7.5 -16.76,-15.37 0,-5.39 4.11,-9.83 10.79,-9.83 3.08,0 6.32,0.81 8.13,2.76 0.34,-0.76 1.29,-2.03 1.7,-2.03 0.31,0 0.39,0.14 0.56,0.88 l 0.66,2.69 c 0.17,0.62 0.67,2.71 0.77,3.12 0.42,1.58 0.45,1.61 2.51,1.64 0.25,0 0.77,0 0.77,0.74 0,0.34 -0.25,0.51 -0.52,0.51 -1.16,0 -2.62,-0.12 -3.84,-0.12 -0.86,0 -2.02,0 -2.89,0.03 -0.88,0.03 -1.88,0.09 -2.75,0.09 -0.25,0 -0.77,0 -0.77,-0.76 0,-0.49 0.38,-0.49 1.25,-0.49 0.67,0 1.36,0 2.03,-0.06 1.11,-0.11 1.14,-0.25 1.14,-0.67 0,-0.14 0,-0.21 -0.23,-1.11 -0.25,-0.97 -0.64,-2.55 -0.78,-2.89 -1,-2.13 -4.25,-3.07 -6.97,-3.07 -3.49,0 -8.05,1.68 -8.05,7.57 0,3.72 1.75,8.39 4.33,11 3.59,3.56 7.31,4.11 9.27,4.11 4.04,0 6.4,-2.93 6.4,-6.83 0,-0.97 -0.09,-1.22 -0.09,-1.42 0,-0.46 0.45,-0.46 0.62,-0.46 0.57,0 0.57,0.11 0.74,0.77 z"
             inkscape:connector-curvature="0"
             style="fill:#000000;stroke-width:0" /><path
             id="path5339"
             d="m 521.62,395.89 -0.01,-0.05 -0.01,-0.05 -0.02,-0.06 -0.01,-0.05 -0.01,-0.06 -0.02,-0.06 -0.03,-0.12 -0.02,-0.12 -0.03,-0.12 -0.03,-0.12 -0.03,-0.11 -0.01,-0.06 -0.01,-0.06 -0.02,-0.05 -0.01,-0.05 -0.01,-0.05 -0.01,-0.05 -0.01,-0.05 -0.01,-0.04 0,-0.04 -0.01,-0.04 -0.01,-0.04 0,-0.03 -0.01,-0.03 0,-0.03 0,-0.02 0,-0.02 c 0,-0.54 0.45,-0.87 0.92,-0.87 0.37,0 0.92,0.2 1.2,0.83 0.02,0.12 0.32,1.29 0.47,1.93 0.85,3.38 0.85,3.43 0.89,3.52 0.33,0.67 2.13,4.16 5.16,4.16 1.22,0 1.75,-0.68 1.75,-1.79 0,-1.42 -1.05,-3.98 -1.63,-5.4 -0.12,-0.3 -0.25,-0.63 -0.25,-1.05 0,-1.3 1.25,-2.2 2.72,-2.2 2.67,0 4.03,3.25 4.03,3.87 0,0.35 -0.42,0.35 -0.51,0.35 -0.43,0 -0.46,-0.1 -0.6,-0.58 -0.48,-1.49 -1.62,-2.78 -2.83,-2.78 -0.56,0 -0.73,0.39 -0.73,0.93 0,0.54 0.1,0.79 0.31,1.33 0.42,1 1.58,3.83 1.58,5.21 0,1.84 -1.33,2.96 -3.69,2.96 -2.31,0 -3.93,-1.42 -4.93,-2.75 -0.22,2.55 -2.69,2.75 -3.71,2.75 -2.45,0 -3.84,-1.53 -4.73,-2.46 -0.11,2.18 -2.39,2.46 -3.02,2.46 -2.5,0 -3.22,-3.81 -3.22,-3.85 0,-0.36 0.41,-0.36 0.54,-0.36 0.42,0 0.46,0.15 0.56,0.48 0.37,1.44 0.95,2.88 2,2.88 0.84,0 1.01,-0.8 1.01,-1.32 0,-0.34 -0.25,-1.29 -0.39,-1.93 -0.18,-0.68 -0.42,-1.71 -0.54,-2.25 l -0.58,-2.22 c -0.16,-0.63 -0.42,-1.72 -0.42,-1.85 0,-0.54 0.43,-0.87 0.92,-0.87 0.37,0 0.92,0.2 1.19,0.83 0.03,0.12 0.32,1.29 0.48,1.93 0.09,0.41 0.37,1.47 0.44,1.72 0.12,0.56 0.28,1.11 0.4,1.67 0.05,0.11 0.94,1.93 2.16,3 0.41,0.35 1.45,1.29 3.08,1.29 1.26,0 1.73,-0.72 1.73,-1.79 0,-0.54 -0.25,-1.54 -0.45,-2.32 z"
             inkscape:connector-curvature="0"
             style="fill:#000000;stroke-width:0" /><path
             id="path5341"
             d="m 551.42,403.14 -0.04,-0.01 -0.04,-0.01 -0.03,-0.02 -0.04,-0.01 -0.04,-0.02 -0.03,-0.01 -0.07,-0.03 -0.06,-0.04 -0.06,-0.04 -0.05,-0.03 -0.05,-0.04 -0.05,-0.05 -0.05,-0.04 -0.04,-0.04 -0.04,-0.05 -0.03,-0.04 -0.03,-0.05 -0.03,-0.05 -0.03,-0.04 -0.03,-0.05 -0.02,-0.05 -0.02,-0.04 -0.02,-0.05 -0.01,-0.04 -0.02,-0.05 -0.01,-0.04 -0.01,-0.04 -0.01,-0.04 0,-0.04 -0.01,-0.04 0,-0.03 -0.01,-0.04 0,-0.03 0,-0.02 0,-0.03 c 0,-0.62 0.51,-0.89 0.94,-0.89 0.29,0 1.32,0.22 1.32,1.53 0,1.67 -1.97,2.2 -3.84,2.2 -4.2,0 -5,-2.57 -5,-3.46 0,-0.89 0.52,-1.43 0.97,-1.77 0.69,-0.5 1.44,-0.59 2.76,-0.83 1.57,-0.25 3.32,-0.51 3.32,-1.79 0,-0.02 0,-2.58 -4.6,-2.58 -0.93,0 -2.48,0.06 -3.28,0.84 0.89,0.2 1.3,0.92 1.3,1.52 0,0.7 -0.53,1.01 -1.08,1.01 -0.84,0 -1.59,-0.67 -1.59,-1.78 0,-2.45 3.89,-2.45 4.61,-2.45 5.11,0 5.98,2.95 5.98,3.97 0,2.23 -2.73,2.67 -4.03,2.89 -1.78,0.26 -3,0.47 -3,1.5 0,0.01 0,2.08 3.59,2.08 0.64,0 1.97,-0.05 2.61,-0.74 z"
             inkscape:connector-curvature="0"
             style="fill:#000000;stroke-width:0" /></g>      </g>
    </g>
  </g>
</svg>
