<?xml version="1.0" encoding="UTF-8" standalone="no"?>
<!-- Created with Inkscape (http://www.inkscape.org/) -->

<svg
   xmlns:dc="http://purl.org/dc/elements/1.1/"
   xmlns:cc="http://creativecommons.org/ns#"
   xmlns:rdf="http://www.w3.org/1999/02/22-rdf-syntax-ns#"
   xmlns:svg="http://www.w3.org/2000/svg"
   xmlns="http://www.w3.org/2000/svg"
   xmlns:sodipodi="http://sodipodi.sourceforge.net/DTD/sodipodi-0.dtd"
   xmlns:inkscape="http://www.inkscape.org/namespaces/inkscape"
   sodipodi:docname="FBDWheel.svg"
   inkscape:version="0.91 r13725"
   version="1.1"
   id="svg2"
   viewBox="0 0 288.21577 228.66966"
   height="64.53566mm"
   width="81.340897mm">
  <sodipodi:namedview
     inkscape:window-maximized="1"
     inkscape:window-y="-8"
     inkscape:window-x="-8"
     inkscape:window-height="738"
     inkscape:window-width="1280"
     inkscape:snap-object-midpoints="true"
     showgrid="false"
     inkscape:current-layer="g6239"
     inkscape:document-units="px"
     inkscape:cy="72.734747"
     inkscape:cx="154.43744"
     inkscape:zoom="2.56"
     inkscape:pageshadow="2"
     inkscape:pageopacity="0.0"
     borderopacity="1.0"
     bordercolor="#666666"
     pagecolor="#ffffff"
     id="base"
     fit-margin-top="0"
     fit-margin-left="0"
     fit-margin-right="0"
     fit-margin-bottom="0" />
  <defs
     id="defs4">
    <marker
       inkscape:stockid="Arrow1Lend"
       orient="auto"
       refY="0"
       refX="0"
       id="marker4461"
       style="overflow:visible"
       inkscape:isstock="true">
      <path
         id="path4463"
         d="M 0,0 5,-5 -12.5,0 5,5 0,0 Z"
         style="fill:#000000;fill-opacity:1;fill-rule:evenodd;stroke:#000000;stroke-width:1pt;stroke-opacity:1"
         transform="matrix(-0.8,0,0,-0.8,-10,0)"
         inkscape:connector-curvature="0" />
    </marker>
    <marker
       inkscape:isstock="true"
       style="overflow:visible"
       id="marker5651"
       refX="0"
       refY="0"
       orient="auto"
       inkscape:stockid="Arrow1Lend">
      <path
         inkscape:connector-curvature="0"
         transform="matrix(-0.8,0,0,-0.8,-10,0)"
         style="fill:#000000;fill-opacity:1;fill-rule:evenodd;stroke:#000000;stroke-width:1pt;stroke-opacity:1"
         d="M 0,0 5,-5 -12.5,0 5,5 0,0 Z"
         id="path5653" />
    </marker>
    <marker
       inkscape:isstock="true"
       style="overflow:visible"
       id="Arrow1Lend"
       refX="0"
       refY="0"
       orient="auto"
       inkscape:stockid="Arrow1Lend"
       inkscape:collect="always">
      <path
         inkscape:connector-curvature="0"
         transform="matrix(-0.8,0,0,-0.8,-10,0)"
         style="fill:#000000;fill-opacity:1;fill-rule:evenodd;stroke:#000000;stroke-width:1pt;stroke-opacity:1"
         d="M 0,0 5,-5 -12.5,0 5,5 0,0 Z"
         id="path5385" />
    </marker>
    <marker
       inkscape:stockid="Arrow1Lstart"
       orient="auto"
       refY="0"
       refX="0"
       id="Arrow1Lstart"
       style="overflow:visible"
       inkscape:isstock="true">
      <path
         inkscape:connector-curvature="0"
         id="path4168"
         d="M 0,0 5,-5 -12.5,0 5,5 0,0 Z"
         style="fill:#000000;fill-opacity:1;fill-rule:evenodd;stroke:#000000;stroke-width:1pt;stroke-opacity:1"
         transform="matrix(0.8,0,0,0.8,10,0)" />
    </marker>
    <marker
       inkscape:stockid="Arrow1Lstart"
       orient="auto"
       refY="0"
       refX="0"
       id="Arrow1Lstart-8"
       style="overflow:visible"
       inkscape:isstock="true">
      <path
         id="path4168-6"
         d="M 0,0 5,-5 -12.5,0 5,5 0,0 Z"
         style="fill:#000000;fill-opacity:1;fill-rule:evenodd;stroke:#000000;stroke-width:1pt;stroke-opacity:1"
         transform="matrix(0.8,0,0,0.8,10,0)"
         inkscape:connector-curvature="0" />
    </marker>
    <marker
       inkscape:stockid="Arrow1Lstart"
       orient="auto"
       refY="0"
       refX="0"
       id="Arrow1Lstart-88"
       style="overflow:visible"
       inkscape:isstock="true">
      <path
         id="path4168-62"
         d="M 0,0 5,-5 -12.5,0 5,5 0,0 Z"
         style="fill:#000000;fill-opacity:1;fill-rule:evenodd;stroke:#000000;stroke-width:1pt;stroke-opacity:1"
         transform="matrix(0.8,0,0,0.8,10,0)"
         inkscape:connector-curvature="0" />
    </marker>
    <marker
       inkscape:stockid="Arrow1Lstart"
       orient="auto"
       refY="0"
       refX="0"
       id="Arrow1Lstart-6"
       style="overflow:visible"
       inkscape:isstock="true">
      <path
         id="path4168-61"
         d="M 0,0 5,-5 -12.5,0 5,5 0,0 Z"
         style="fill:#000000;fill-opacity:1;fill-rule:evenodd;stroke:#000000;stroke-width:1pt;stroke-opacity:1"
         transform="matrix(0.8,0,0,0.8,10,0)"
         inkscape:connector-curvature="0" />
    </marker>
  </defs>
  <metadata
     id="metadata7">
    <rdf:RDF>
      <cc:Work
         rdf:about="">
        <dc:format>image/svg+xml</dc:format>
        <dc:type
           rdf:resource="http://purl.org/dc/dcmitype/StillImage" />
        <dc:title />
      </cc:Work>
    </rdf:RDF>
  </metadata>
  <g
     transform="translate(-238.07724,-562.15184)"
     inkscape:label="Layer 1"
     inkscape:groupmode="layer"
     id="layer1">
    <circle
       style="fill:#ffffff;fill-opacity:1;stroke:#000000;stroke-width:2.34146333;stroke-opacity:1"
       id="path4148"
       cx="374.64288"
       cy="678.79077"
       r="81.114983" />
    <path
       transform="matrix(0.98882768,0.14906316,-0.14906316,0.98882768,0,0)"
       style="fill:none;fill-opacity:1;stroke:#000000;stroke-width:0.93400002;stroke-miterlimit:4;stroke-dasharray:none;stroke-opacity:1;marker-end:url(#marker5651)"
       id="path4162"
       sodipodi:type="arc"
       sodipodi:cx="471.63995"
       sodipodi:cy="615.36163"
       sodipodi:rx="108.96174"
       sodipodi:ry="106.46174"
       sodipodi:start="3.0281509"
       sodipodi:end="4.6146965"
       d="m 363.37858,627.41295 a 108.96174,106.46174 0 0 1 23.52412,-78.97973 108.96174,106.46174 0 0 1 74.10943,-39.0257"
       sodipodi:open="true" />
    <path
       inkscape:connector-curvature="0"
       d=""
       cx="0"
       cy="0"
       r="0"
       id="path5030"
       style="fill:none;fill-opacity:1;stroke:#000000;stroke-width:0.93400002;stroke-miterlimit:4;stroke-dasharray:none;stroke-opacity:1" />
    <path
       transform="matrix(-0.11195765,0.99371298,-0.99371298,-0.11195765,0,0)"
       sodipodi:open="true"
       style="fill:none;fill-opacity:1;stroke:#000000;stroke-width:0.93400002;stroke-miterlimit:4;stroke-dasharray:none;stroke-opacity:1;marker-end:url(#Arrow1Lend)"
       id="path4162-2"
       sodipodi:type="arc"
       sodipodi:cx="632.57904"
       sodipodi:cy="-448.28333"
       sodipodi:rx="108.96174"
       sodipodi:ry="106.46174"
       sodipodi:start="3.2311262"
       sodipodi:end="4.587246"
       d="m 524.05374,-457.80249 a 108.96174,106.46174 0 0 1 94.92507,-96.11002" />
    <path
       transform="matrix(-0.99611964,-0.08800949,0.08800949,-0.99611964,0,0)"
       style="fill:none;fill-opacity:1;stroke:#000000;stroke-width:0.93400002;stroke-miterlimit:4;stroke-dasharray:none;stroke-opacity:1;marker-start:url(#Arrow1Lstart-6)"
       id="path4162-0"
       sodipodi:type="arc"
       sodipodi:cx="-432.92917"
       sodipodi:cy="-643.18469"
       sodipodi:rx="108.96174"
       sodipodi:ry="106.46174"
       sodipodi:start="4.4615574"
       sodipodi:end="5.9364715"
       d="m -459.97452,-746.31485 a 108.96174,106.46174 0 0 1 129.52326,66.9535"
       sodipodi:open="true" />
    <g
       id="g5818">
      <g
         word-spacing="normal"
         letter-spacing="normal"
         font-size-adjust="none"
         font-stretch="normal"
         font-weight="normal"
         font-variant="normal"
         font-style="normal"
         stroke-miterlimit="10.433"
         xml:space="preserve"
         transform="matrix(0.4430706,0,0,-0.4430706,83.71466,744.62626)"
         id="content"
         style="font-style:normal;font-variant:normal;font-weight:normal;font-stretch:normal;letter-spacing:normal;word-spacing:normal;text-anchor:start;fill:none;fill-opacity:1;fill-rule:evenodd;stroke:#000000;stroke-linecap:butt;stroke-linejoin:miter;stroke-miterlimit:10.43299961;stroke-dasharray:none;stroke-dashoffset:0;stroke-opacity:1" />      <g
         id="g6239"
         transform="matrix(1.714106,0,0,1.714106,290.48079,500.27226)">
        <g
           word-spacing="normal"
           letter-spacing="normal"
           font-size-adjust="none"
           font-stretch="normal"
           font-weight="normal"
           font-variant="normal"
           font-style="normal"
           stroke-miterlimit="10.433"
           xml:space="preserve"
           transform="matrix(0.37333565,0,0,-0.37333565,-65.333739,220.88965)"
           id="g6241"
           style="font-style:normal;font-variant:normal;font-weight:normal;font-stretch:normal;letter-spacing:normal;word-spacing:normal;text-anchor:start;fill:none;fill-opacity:1;fill-rule:evenodd;stroke:#000000;stroke-linecap:butt;stroke-linejoin:miter;stroke-miterlimit:10.43299961;stroke-dasharray:none;stroke-dashoffset:0;stroke-opacity:1"><path
             id="path6243"
             d="m 470.16,424.78 8.38,0 c 0.65,0 2.43,0 2.43,1.7 0,1.19 -1.04,1.19 -1.98,1.19 l -13.95,0 c -1,0 -2.94,0 -5.13,-2.35 -1.66,-1.78 -3.05,-4.17 -3.05,-4.48 0,-0.05 0,-0.48 0.6,-0.48 0.4,0 0.5,0.18 0.79,0.59 2.46,3.83 5.29,3.83 6.33,3.83 l 4.14,0 -4.89,-15.99 c -0.19,-0.59 -0.48,-1.64 -0.48,-1.84 0,-0.55 0.34,-1.34 1.44,-1.34 1.64,0 1.89,1.39 2.04,2.14 z"
             inkscape:connector-curvature="0"
             style="fill:#000000;stroke-width:0" /><path
             id="path6245"
             d="m 506.61,422.81 0,0.02 0,0.01 0,0.02 0,0.02 -0.01,0.02 0,0.01 0,0.02 -0.01,0.02 -0.01,0.02 0,0.02 -0.01,0.02 -0.01,0.02 -0.01,0.02 -0.01,0.01 -0.01,0.02 -0.01,0.02 -0.02,0.02 -0.01,0.01 -0.02,0.02 -0.02,0.01 -0.01,0.02 -0.02,0.01 -0.02,0.01 -0.02,0.02 -0.03,0.01 -0.02,0 -0.03,0.01 -0.02,0.01 -0.02,0 -0.01,0 -0.01,0.01 -0.02,0 -0.01,0 -0.02,0 -0.01,0 -0.02,0 c -0.25,0 -0.31,-0.08 -0.62,-0.42 l -2.55,-2.69 c -0.31,0.42 -2.27,3.11 -6.55,3.11 -8.47,0 -16.76,-7.5 -16.76,-15.37 0,-5.39 4.11,-9.83 10.79,-9.83 3.08,0 6.32,0.81 8.13,2.76 0.34,-0.76 1.29,-2.03 1.7,-2.03 0.31,0 0.39,0.14 0.56,0.88 l 0.66,2.69 c 0.17,0.62 0.67,2.71 0.77,3.12 0.42,1.58 0.45,1.61 2.51,1.64 0.25,0 0.77,0 0.77,0.74 0,0.34 -0.25,0.51 -0.52,0.51 -1.16,0 -2.62,-0.12 -3.84,-0.12 -0.86,0 -2.02,0 -2.89,0.03 -0.88,0.03 -1.88,0.09 -2.75,0.09 -0.25,0 -0.77,0 -0.77,-0.76 0,-0.49 0.38,-0.49 1.25,-0.49 0.67,0 1.36,0 2.03,-0.06 1.11,-0.11 1.14,-0.25 1.14,-0.67 0,-0.14 0,-0.21 -0.23,-1.11 -0.25,-0.97 -0.64,-2.55 -0.78,-2.89 -1,-2.13 -4.25,-3.07 -6.97,-3.07 -3.49,0 -8.05,1.68 -8.05,7.57 0,3.72 1.75,8.39 4.33,11 3.59,3.56 7.31,4.11 9.27,4.11 4.04,0 6.4,-2.93 6.4,-6.83 0,-0.97 -0.09,-1.22 -0.09,-1.42 0,-0.46 0.45,-0.46 0.62,-0.46 0.57,0 0.57,0.11 0.74,0.77 z"
             inkscape:connector-curvature="0"
             style="fill:#000000;stroke-width:0" /><path
             id="path6247"
             d="m 521.07,395.23 0.04,-0.06 0.04,-0.06 0.04,-0.07 0.05,-0.07 0.06,-0.07 0.05,-0.07 0.07,-0.07 0.07,-0.08 0.07,-0.07 0.08,-0.08 0.08,-0.07 0.09,-0.08 0.1,-0.07 0.1,-0.07 0.11,-0.07 0.11,-0.07 0.13,-0.07 0.12,-0.07 0.14,-0.06 0.14,-0.06 0.15,-0.06 0.15,-0.05 0.17,-0.05 0.17,-0.05 0.18,-0.04 0.18,-0.04 0.2,-0.03 0.2,-0.03 0.21,-0.02 0.22,-0.02 0.23,-0.01 0.24,0 c 4.73,0 6.01,7.98 6.01,9.17 0,1.72 -1,2.14 -1.42,2.14 -0.78,0 -1.47,-0.8 -1.47,-1.44 0,-0.47 0.32,-0.72 0.47,-0.84 0.7,-0.53 0.97,-1.17 0.97,-1.91 0,-0.64 -1.25,-6.26 -4.44,-6.26 -0.93,0 -2.39,0.29 -2.39,2.26 0,0.05 0,0.52 0.18,1.27 0.23,1 0.95,3.86 1.29,5.19 0.11,0.39 0.11,0.43 0.11,0.56 0,0.55 -0.45,0.87 -0.92,0.87 -0.41,0 -0.86,-0.22 -1.1,-0.64 -0.1,-0.17 -0.32,-1.09 -0.48,-1.65 -0.34,-1.41 -0.34,-1.47 -0.72,-2.86 -0.2,-0.8 -0.42,-1.74 -0.45,-2.42 0.08,-0.4 0,-0.52 -0.22,-0.94 -0.95,-1.64 -2,-1.64 -2.39,-1.64 -0.37,0 -1.33,0.04 -1.97,0.59 -0.64,0.58 -0.64,1.5 -0.64,1.77 0,1.01 0.31,2.04 1.36,4.57 0.2,0.5 0.36,0.88 0.36,1.3 0,1.22 -1.17,2.2 -2.72,2.2 -2.62,0 -4.02,-3.18 -4.02,-3.85 0,-0.36 0.41,-0.36 0.54,-0.36 0.42,0 0.43,0.12 0.56,0.5 0.53,1.71 1.7,2.86 2.81,2.86 0.48,0 0.75,-0.27 0.75,-0.94 0,-0.5 -0.09,-0.78 -0.42,-1.5 -1.31,-3.24 -1.31,-3.88 -1.31,-4.49 0,-2.86 2.56,-3.51 4.58,-3.51 0.5,0 1.88,0 3.1,1.79 z"
             inkscape:connector-curvature="0"
             style="fill:#000000;stroke-width:0" /><path
             style="fill:#000000;stroke-width:0"
             inkscape:connector-curvature="0"
             d="m 470.77041,230.05865 8.38,0 c 0.65,0 2.43,0 2.43,1.7 0,1.19 -1.04,1.19 -1.98,1.19 l -13.95,0 c -1,0 -2.94,0 -5.13,-2.35 -1.66,-1.78 -3.05,-4.17 -3.05,-4.48 0,-0.05 0,-0.48 0.6,-0.48 0.4,0 0.5,0.18 0.79,0.59 2.46,3.83 5.29,3.83 6.33,3.83 l 4.14,0 -4.89,-15.99 c -0.19,-0.59 -0.48,-1.64 -0.48,-1.84 0,-0.55 0.34,-1.34 1.44,-1.34 1.64,0 1.89,1.39 2.04,2.14 z"
             id="path4663" /><text
             xml:space="preserve"
             style="font-style:italic;font-variant:normal;font-weight:500;font-stretch:normal;font-size:62.50616455px;line-height:125%;font-family:'CMU Classical Serif';-inkscape-font-specification:'CMU Classical Serif, Medium Italic';text-align:start;letter-spacing:0px;word-spacing:0px;writing-mode:lr-tb;text-anchor:start;fill:#000000;fill-opacity:1;stroke:none;stroke-width:1px;stroke-linecap:butt;stroke-linejoin:miter;stroke-opacity:1"
             x="476.44992"
             y="-201.7303"
             id="text4665"
             sodipodi:linespacing="125%"
             transform="scale(1,-1)"><tspan
               sodipodi:role="line"
               id="tspan4667"
               x="476.44992"
               y="-201.7303"
               style="font-style:italic;font-variant:normal;font-weight:500;font-stretch:normal;font-size:31.25308228px;line-height:125%;font-family:'CMU Classical Serif';-inkscape-font-specification:'CMU Classical Serif, Medium Italic';text-align:start;writing-mode:lr-tb;text-anchor:start">a</tspan></text>
</g>      </g>
      <g
         id="g6307"
         transform="matrix(1.6884316,0,0,1.6884316,73.987399,655.24846)">
        <g
           id="g6309"
           transform="matrix(0.37333565,0,0,-0.37333565,-65.333739,220.88965)"
           xml:space="preserve"
           stroke-miterlimit="10.433"
           font-style="normal"
           font-variant="normal"
           font-weight="normal"
           font-stretch="normal"
           font-size-adjust="none"
           letter-spacing="normal"
           word-spacing="normal"
           style="font-style:normal;font-variant:normal;font-weight:normal;font-stretch:normal;letter-spacing:normal;word-spacing:normal;text-anchor:start;fill:none;fill-opacity:1;fill-rule:evenodd;stroke:#000000;stroke-linecap:butt;stroke-linejoin:miter;stroke-miterlimit:10.43299961;stroke-dasharray:none;stroke-dashoffset:0;stroke-opacity:1"><path
             d="m 470.16,424.78 8.38,0 c 0.65,0 2.43,0 2.43,1.7 0,1.19 -1.04,1.19 -1.98,1.19 l -13.95,0 c -1,0 -2.94,0 -5.13,-2.35 -1.66,-1.78 -3.05,-4.17 -3.05,-4.48 0,-0.05 0,-0.48 0.6,-0.48 0.4,0 0.5,0.18 0.79,0.59 2.46,3.83 5.29,3.83 6.33,3.83 l 4.14,0 -4.89,-15.99 c -0.19,-0.59 -0.48,-1.64 -0.48,-1.84 0,-0.55 0.34,-1.34 1.44,-1.34 1.64,0 1.89,1.39 2.04,2.14 z"
             id="path6311"
             inkscape:connector-curvature="0"
             style="fill:#000000;stroke-width:0" /><path
             d="m 483.86,401.48 -0.03,-0.11 -0.02,-0.1 -0.03,-0.1 -0.03,-0.09 -0.03,-0.09 -0.03,-0.09 -0.03,-0.08 -0.03,-0.07 -0.04,-0.07 -0.04,-0.07 -0.04,-0.06 -0.05,-0.06 -0.05,-0.05 -0.06,-0.05 -0.06,-0.05 -0.08,-0.04 -0.07,-0.04 -0.09,-0.03 -0.09,-0.04 -0.1,-0.03 -0.11,-0.02 -0.06,-0.02 -0.06,-0.01 -0.07,-0.01 -0.06,-0.01 -0.07,-0.01 -0.07,-0.01 -0.08,0 -0.08,-0.01 -0.08,-0.01 -0.08,0 -0.09,-0.01 -0.09,-0.01 -0.09,0 -0.09,0 -0.1,-0.01 -0.11,0 -0.1,0 -0.11,0 -0.11,-0.01 -0.12,0 -0.12,0 -0.12,0 c -0.58,0 -1.04,0 -1.04,-0.73 0,-0.52 0.41,-0.52 1.04,-0.52 l 13.48,0 c 5.86,0 10.36,4 10.36,7.45 0,2.49 -2.27,4.61 -5.97,4.99 4.22,0.76 7.75,3.42 7.75,6.41 0,2.65 -2.69,4.95 -7.22,4.95 l -0.56,-1.25 c 3.56,0 4.36,-2.35 4.36,-3.66 0,-2.83 -3.17,-6.03 -7.85,-6.03 l -5.7,0 -0.25,-0.98 7.39,0 c 3.27,0 4.53,-2.16 4.53,-4.18 0,-3.45 -3.53,-6.45 -7.73,-6.45 l -5.63,0 c -1.07,0 -1.11,0.05 -1.11,0.36 0,0.03 0,0.2 0.15,0.72 l 2.4,9.55 0.25,0.98 2.13,8.5 c 0.26,1.08 0.31,1.19 1.76,1.19 l 5.3,0 0.56,1.25 -12.69,0 c -0.65,0 -1.11,0 -1.11,-0.77 0,-0.48 0.43,-0.48 1.11,-0.48 0.04,0 0.71,0 1.33,-0.08 0.74,-0.06 0.8,-0.14 0.8,-0.48 0,-0.07 0,-0.24 -0.14,-0.77 z"
             id="path6313"
             inkscape:connector-curvature="0"
             style="fill:#000000;stroke-width:0" /><path
             d="m 520.23,395.23 0.04,-0.06 0.04,-0.06 0.04,-0.07 0.05,-0.07 0.06,-0.07 0.05,-0.07 0.07,-0.07 0.07,-0.08 0.07,-0.07 0.08,-0.08 0.08,-0.07 0.09,-0.08 0.1,-0.07 0.1,-0.07 0.11,-0.07 0.11,-0.07 0.13,-0.07 0.12,-0.07 0.14,-0.06 0.14,-0.06 0.15,-0.06 0.15,-0.05 0.17,-0.05 0.17,-0.05 0.18,-0.04 0.18,-0.04 0.2,-0.03 0.2,-0.03 0.21,-0.02 0.22,-0.02 0.23,-0.01 0.24,0 c 4.73,0 6.01,7.98 6.01,9.17 0,1.72 -1,2.14 -1.42,2.14 -0.78,0 -1.47,-0.8 -1.47,-1.44 0,-0.47 0.32,-0.72 0.47,-0.84 0.71,-0.53 0.97,-1.17 0.97,-1.91 0,-0.64 -1.25,-6.26 -4.44,-6.26 -0.93,0 -2.39,0.29 -2.39,2.26 0,0.05 0,0.52 0.18,1.27 0.23,1 0.95,3.86 1.29,5.19 0.11,0.39 0.11,0.43 0.11,0.56 0,0.55 -0.45,0.87 -0.92,0.87 -0.41,0 -0.86,-0.22 -1.09,-0.64 -0.11,-0.17 -0.33,-1.09 -0.49,-1.65 -0.34,-1.41 -0.34,-1.47 -0.72,-2.86 -0.2,-0.8 -0.42,-1.74 -0.45,-2.42 0.08,-0.4 0,-0.52 -0.22,-0.94 -0.95,-1.64 -2,-1.64 -2.39,-1.64 -0.37,0 -1.33,0.04 -1.97,0.59 -0.64,0.58 -0.64,1.5 -0.64,1.77 0,1.01 0.31,2.04 1.36,4.57 0.2,0.5 0.36,0.88 0.36,1.3 0,1.22 -1.17,2.2 -2.72,2.2 -2.62,0 -4.01,-3.18 -4.01,-3.85 0,-0.36 0.4,-0.36 0.53,-0.36 0.42,0 0.43,0.12 0.56,0.5 0.53,1.71 1.7,2.86 2.81,2.86 0.49,0 0.75,-0.27 0.75,-0.94 0,-0.5 -0.09,-0.78 -0.42,-1.5 -1.31,-3.24 -1.31,-3.88 -1.31,-4.49 0,-2.86 2.56,-3.51 4.58,-3.51 0.5,0 1.89,0 3.1,1.79 z"
             id="path6315"
             inkscape:connector-curvature="0"
             style="fill:#000000;stroke-width:0" /></g>      </g>
      <g
         id="g6385"
         transform="matrix(1.3221219,0,0,1.3221219,97.871514,493.51494)">
        <g
           word-spacing="normal"
           letter-spacing="normal"
           font-size-adjust="none"
           font-stretch="normal"
           font-weight="normal"
           font-variant="normal"
           font-style="normal"
           stroke-miterlimit="10.433"
           xml:space="preserve"
           transform="matrix(0.37333565,0,0,-0.37333565,-65.333739,220.88965)"
           id="g6387"
           style="font-style:normal;font-variant:normal;font-weight:normal;font-stretch:normal;letter-spacing:normal;word-spacing:normal;text-anchor:start;fill:none;fill-opacity:1;fill-rule:evenodd;stroke:#000000;stroke-linecap:butt;stroke-linejoin:miter;stroke-miterlimit:10.43299961;stroke-dasharray:none;stroke-dashoffset:0;stroke-opacity:1"><path
             id="path6389"
             d="m 482.47,436.59 0.04,0.15 0.04,0.14 0.03,0.14 0.04,0.13 0.03,0.12 0.04,0.12 0.04,0.11 0.04,0.11 0.04,0.1 0.04,0.09 0.05,0.09 0.05,0.08 0.06,0.08 0.06,0.07 0.07,0.07 0.08,0.06 0.08,0.06 0.09,0.05 0.09,0.05 0.11,0.04 0.11,0.04 0.13,0.04 0.13,0.03 0.07,0.01 0.08,0.02 0.07,0.01 0.08,0.01 0.08,0.01 0.09,0.01 0.09,0.01 0.09,0.01 0.09,0.01 0.1,0 0.1,0.01 0.11,0 0.1,0.01 0.11,0 0.12,0 0.12,0 0.12,0 0.13,0 c 0.79,0 1.34,0 1.34,0.96 0,0.43 -0.3,0.59 -0.69,0.59 -1.25,0 -4.28,-0.16 -5.53,-0.16 -1.64,0 -5.69,0.16 -7.33,0.16 -0.45,0 -1.04,0 -1.04,-1 0,-0.55 0.4,-0.55 1.7,-0.55 1.14,0 1.64,0 2.88,-0.09 1.2,-0.16 1.54,-0.31 1.54,-1 0,-0.3 -0.09,-0.66 -0.19,-1.05 l -5.73,-22.87 c -1.2,-4.83 -4.58,-7.47 -7.17,-7.47 -1.3,0 -3.94,0.5 -4.74,3.09 0.14,-0.04 0.5,-0.04 0.6,-0.04 1.94,0 3.23,1.68 3.23,3.18 0,1.6 -1.34,2.08 -2.19,2.08 -0.89,0 -3.34,-0.59 -3.34,-3.98 0,-3.08 2.64,-5.42 6.58,-5.42 4.59,0 9.76,3.28 11.01,8.21 z"
             inkscape:connector-curvature="0"
             style="fill:#000000;stroke-width:0" /><path
             id="path6391"
             d="m 501.45,409.87 0.02,0.09 0.03,0.1 0.02,0.1 0.03,0.1 0.03,0.1 0.02,0.11 0.06,0.22 0.05,0.22 0.06,0.22 0.05,0.22 0.03,0.11 0.02,0.1 0.03,0.11 0.02,0.1 0.02,0.09 0.02,0.1 0.02,0.09 0.02,0.09 0.02,0.08 0.02,0.07 0.01,0.07 0.02,0.07 0.01,0.06 0.01,0.05 0,0.04 0.01,0.04 0,0.01 0,0.02 0,0.01 0.01,0.01 c 0,0.69 -0.55,1.11 -1.15,1.11 -0.67,0 -1.29,-0.42 -1.5,-1.02 -0.1,-0.26 -0.45,-1.73 -0.7,-2.61 -0.48,-1.98 -0.48,-2.04 -1,-4 -0.45,-1.92 -0.53,-2.2 -0.56,-3.2 0.14,-0.7 -0.14,-1.36 -0.99,-2.41 -0.43,-0.56 -1.14,-1.15 -2.32,-1.15 -1.36,0 -3.14,0.48 -3.14,3.2 0,1.78 0.98,4.36 1.67,6.14 0.59,1.53 0.73,1.84 0.73,2.44 0,1.67 -1.42,2.95 -3.31,2.95 -3.52,0 -5.08,-4.73 -5.08,-5.33 0,-0.45 0.49,-0.45 0.6,-0.45 0.48,0 0.51,0.17 0.62,0.56 0.88,2.89 2.38,4.25 3.77,4.25 0.59,0 0.86,-0.39 0.86,-1.22 0,-0.79 -0.32,-1.56 -0.49,-2.01 -1.98,-5.1 -1.98,-5.8 -1.98,-6.88 0,-4.11 3.73,-4.62 5.61,-4.62 0.67,0 2.37,0 3.93,2.33 0.8,-1.57 2.72,-2.33 4.85,-2.33 3.11,0 4.64,2.67 5.33,4.11 1.5,2.92 2.43,7.28 2.43,8.89 0,2.61 -1.48,2.75 -1.73,2.75 -0.91,0 -1.88,-0.96 -1.88,-1.86 0,-0.58 0.35,-0.86 0.58,-1.08 0.85,-0.69 1.3,-1.67 1.3,-2.78 0,-0.45 -1.47,-9.06 -5.89,-9.06 -2.83,0 -2.83,2.51 -2.83,3.11 0,0.93 0.14,1.5 0.64,3.48 z"
             inkscape:connector-curvature="0"
             style="fill:#000000;stroke-width:0" /><path
             id="path6393"
             d="m 536,418.65 0,0.14 -0.01,0.13 -0.02,0.13 -0.02,0.13 -0.03,0.13 -0.04,0.13 -0.04,0.12 -0.04,0.12 -0.06,0.11 -0.06,0.12 -0.06,0.11 -0.07,0.11 -0.07,0.1 -0.08,0.1 -0.08,0.1 -0.09,0.09 -0.09,0.08 -0.1,0.09 -0.1,0.08 -0.1,0.07 -0.11,0.07 -0.11,0.06 -0.11,0.06 -0.12,0.05 -0.12,0.05 -0.12,0.04 -0.13,0.04 -0.13,0.03 -0.13,0.02 -0.13,0.02 -0.13,0.01 -0.14,0 c -1.43,0 -2.64,-1.18 -2.64,-2.64 0,-1.44 1.21,-2.64 2.64,-2.64 1.46,0 2.64,1.2 2.64,2.64 z"
             inkscape:connector-curvature="0"
             style="fill:#000000;stroke-width:0" /><path
             id="path6395"
             d="m 565.59,450.13 0,0.11 -0.01,0.11 -0.02,0.11 -0.02,0.11 -0.02,0.11 -0.03,0.12 -0.04,0.11 -0.04,0.1 -0.04,0.11 -0.05,0.11 -0.06,0.1 -0.06,0.1 -0.07,0.1 -0.07,0.1 -0.07,0.09 -0.08,0.09 -0.08,0.09 -0.09,0.08 -0.09,0.08 -0.1,0.08 -0.1,0.07 -0.1,0.06 -0.11,0.06 -0.11,0.06 -0.12,0.05 -0.12,0.04 -0.12,0.04 -0.13,0.03 -0.13,0.03 -0.13,0.01 -0.14,0.02 -0.14,0 c -1.38,0 -2.5,-1.09 -2.5,-2.48 0,-1.41 1.12,-2.5 2.5,-2.5 1.5,0 2.49,1.29 2.49,2.5 z"
             inkscape:connector-curvature="0"
             style="fill:#000000;stroke-width:0" /><path
             id="path6397"
             d="m 575.22,450.13 -0.01,0.12 -0.01,0.13 -0.01,0.13 -0.02,0.12 -0.03,0.12 -0.04,0.12 -0.03,0.12 -0.05,0.11 -0.05,0.11 -0.05,0.11 -0.06,0.1 -0.07,0.1 -0.06,0.1 -0.08,0.09 -0.08,0.09 -0.08,0.09 -0.08,0.08 -0.09,0.08 -0.1,0.07 -0.1,0.07 -0.1,0.06 -0.1,0.06 -0.11,0.06 -0.11,0.05 -0.12,0.04 -0.11,0.04 -0.12,0.03 -0.12,0.03 -0.13,0.02 -0.13,0.02 -0.12,0.01 -0.13,0 c -1.49,0 -2.49,-1.3 -2.49,-2.48 0,-1.21 1,-2.5 2.49,-2.5 1.4,0 2.5,1.09 2.5,2.5 z"
             inkscape:connector-curvature="0"
             style="fill:#000000;stroke-width:0" /><path
             id="path6399"
             d="m 574.07,431.11 0,0.31 -0.01,0.34 -0.02,0.36 -0.02,0.37 -0.03,0.39 -0.04,0.39 -0.04,0.41 -0.06,0.41 -0.07,0.42 -0.08,0.43 -0.08,0.42 -0.1,0.43 -0.12,0.42 -0.12,0.42 -0.14,0.41 -0.16,0.41 -0.17,0.4 -0.18,0.38 -0.2,0.37 -0.22,0.36 -0.23,0.34 -0.26,0.32 -0.27,0.3 -0.29,0.27 -0.31,0.25 -0.16,0.12 -0.17,0.1 -0.17,0.1 -0.18,0.1 -0.18,0.08 -0.19,0.08 -0.19,0.07 -0.2,0.06 -0.21,0.05 -0.21,0.05 -0.22,0.03 -0.22,0.02 -0.23,0.02 -0.23,0 -0.05,-1.09 c 2.44,0 2.73,-3.19 2.73,-6.03 0,-2.44 -0.39,-4.99 -1.59,-9.92 l -10.41,0 c 0.85,3.2 1.85,7.18 3.83,10.72 1.36,2.43 3.19,5.23 5.44,5.23 l 0.05,1.09 c -6.93,0 -14.6,-14.04 -14.6,-25.45 0,-4.69 1.44,-10.22 5.99,-10.22 l 0,1.1 c -1.66,0 -2.71,1.45 -2.71,6.07 0,2.1 0.3,4.99 1.6,9.86 l 10.37,0 c -0.54,-2.28 -1.59,-6.51 -3.5,-10.11 -1.73,-3.39 -3.62,-5.82 -5.76,-5.82 l 0,-1.1 c 7.01,0 14.59,14.3 14.59,25.46 z"
             inkscape:connector-curvature="0"
             style="fill:#000000;stroke-width:0" /><path
             id="path6401"
             d="m 593.13,409.87 0.02,0.09 0.03,0.1 0.02,0.1 0.03,0.1 0.03,0.1 0.02,0.11 0.06,0.22 0.05,0.22 0.06,0.22 0.05,0.22 0.03,0.11 0.02,0.1 0.03,0.11 0.02,0.1 0.02,0.09 0.02,0.1 0.02,0.09 0.02,0.09 0.02,0.08 0.02,0.07 0.01,0.07 0.02,0.07 0.01,0.06 0.01,0.05 0,0.04 0.01,0.04 0,0.01 0,0.02 0,0.01 0,0.01 c 0,0.69 -0.54,1.11 -1.13,1.11 -0.68,0 -1.3,-0.42 -1.5,-1.02 -0.12,-0.26 -0.46,-1.73 -0.71,-2.61 -0.48,-1.98 -0.48,-2.04 -1,-4 -0.45,-1.92 -0.53,-2.2 -0.56,-3.2 0.14,-0.7 -0.14,-1.36 -0.98,-2.41 -0.44,-0.56 -1.15,-1.15 -2.33,-1.15 -1.36,0 -3.14,0.48 -3.14,3.2 0,1.78 0.98,4.36 1.67,6.14 0.59,1.53 0.73,1.84 0.73,2.44 0,1.67 -1.42,2.95 -3.31,2.95 -3.52,0 -5.08,-4.73 -5.08,-5.33 0,-0.45 0.49,-0.45 0.59,-0.45 0.49,0 0.52,0.17 0.63,0.56 0.87,2.89 2.37,4.25 3.77,4.25 0.59,0 0.85,-0.39 0.85,-1.22 0,-0.79 -0.31,-1.56 -0.48,-2.01 -1.98,-5.1 -1.98,-5.8 -1.98,-6.88 0,-4.11 3.73,-4.62 5.61,-4.62 0.67,0 2.37,0 3.93,2.33 0.8,-1.57 2.72,-2.33 4.85,-2.33 3.11,0 4.64,2.67 5.32,4.11 1.5,2.92 2.44,7.28 2.44,8.89 0,2.61 -1.48,2.75 -1.73,2.75 -0.91,0 -1.88,-0.96 -1.88,-1.86 0,-0.58 0.35,-0.86 0.58,-1.08 0.84,-0.69 1.3,-1.67 1.3,-2.78 0,-0.45 -1.47,-9.06 -5.89,-9.06 -2.83,0 -2.83,2.51 -2.83,3.11 0,0.93 0.14,1.5 0.64,3.48 z"
             inkscape:connector-curvature="0"
             style="fill:#000000;stroke-width:0" /></g>      </g>
    </g>
    <path
       d="m 632.48791,-554.74503 a 108.96174,106.46174 0 0 1 97.38387,58.52832"
       sodipodi:end="5.8161507"
       sodipodi:start="4.7115526"
       sodipodi:ry="106.46174"
       sodipodi:rx="108.96174"
       sodipodi:cy="-448.28333"
       sodipodi:cx="632.57904"
       sodipodi:type="arc"
       id="path4459"
       style="fill:none;fill-opacity:1;stroke:#000000;stroke-width:0.934;stroke-miterlimit:4;stroke-dasharray:none;stroke-opacity:1;marker-start:url(#Arrow1Lstart)"
       sodipodi:open="true"
       transform="matrix(-0.11195765,0.99371298,-0.99371298,-0.11195765,0,0)" />
  </g>
</svg>
