<?xml version="1.0" encoding="UTF-8" standalone="no"?>
<!-- Created with Inkscape (http://www.inkscape.org/) -->

<svg
   xmlns:dc="http://purl.org/dc/elements/1.1/"
   xmlns:cc="http://creativecommons.org/ns#"
   xmlns:rdf="http://www.w3.org/1999/02/22-rdf-syntax-ns#"
   xmlns:svg="http://www.w3.org/2000/svg"
   xmlns="http://www.w3.org/2000/svg"
   xmlns:sodipodi="http://sodipodi.sourceforge.net/DTD/sodipodi-0.dtd"
   xmlns:inkscape="http://www.inkscape.org/namespaces/inkscape"
   width="325.46603mm"
   height="189.76295mm"
   viewBox="0 0 1153.2261 672.38842"
   id="svg2"
   version="1.1"
   inkscape:version="0.91 r13725"
   sodipodi:docname="gears.svg">
  <sodipodi:namedview
     id="base"
     pagecolor="#ffffff"
     bordercolor="#666666"
     borderopacity="1.0"
     inkscape:pageopacity="0.0"
     inkscape:pageshadow="2"
     inkscape:zoom="0.44993664"
     inkscape:cx="562.7487"
     inkscape:cy="468.28888"
     inkscape:document-units="px"
     inkscape:current-layer="layer1"
     showgrid="false"
     inkscape:window-width="1280"
     inkscape:window-height="738"
     inkscape:window-x="-8"
     inkscape:window-y="-8"
     inkscape:window-maximized="1"
     fit-margin-top="0"
     fit-margin-left="0"
     fit-margin-right="0"
     fit-margin-bottom="0" />
  <defs
     id="defs4">
    <marker
       inkscape:stockid="Arrow1Mend"
       orient="auto"
       refY="0"
       refX="0"
       id="marker7592"
       style="overflow:visible"
       inkscape:isstock="true">
      <path
         id="path7594"
         d="M 0,0 5,-5 -12.5,0 5,5 0,0 Z"
         style="fill:#000000;fill-opacity:1;fill-rule:evenodd;stroke:#000000;stroke-width:1pt;stroke-opacity:1"
         transform="matrix(-0.4,0,0,-0.4,-4,0)"
         inkscape:connector-curvature="0" />
    </marker>
    <marker
       inkscape:stockid="Arrow1Mend"
       orient="auto"
       refY="0"
       refX="0"
       id="marker6658"
       style="overflow:visible"
       inkscape:isstock="true">
      <path
         id="path6660"
         d="M 0,0 5,-5 -12.5,0 5,5 0,0 Z"
         style="fill:#000000;fill-opacity:1;fill-rule:evenodd;stroke:#000000;stroke-width:1pt;stroke-opacity:1"
         transform="matrix(-0.4,0,0,-0.4,-4,0)"
         inkscape:connector-curvature="0" />
    </marker>
    <marker
       inkscape:stockid="Arrow1Mend"
       orient="auto"
       refY="0"
       refX="0"
       id="marker6628"
       style="overflow:visible"
       inkscape:isstock="true">
      <path
         id="path6630"
         d="M 0,0 5,-5 -12.5,0 5,5 0,0 Z"
         style="fill:#000000;fill-opacity:1;fill-rule:evenodd;stroke:#000000;stroke-width:1pt;stroke-opacity:1"
         transform="matrix(-0.4,0,0,-0.4,-4,0)"
         inkscape:connector-curvature="0" />
    </marker>
    <marker
       inkscape:isstock="true"
       style="overflow:visible"
       id="marker4786"
       refX="0"
       refY="0"
       orient="auto"
       inkscape:stockid="Arrow1Mend"
       inkscape:collect="always">
      <path
         transform="matrix(-0.4,0,0,-0.4,-4,0)"
         style="fill:#000000;fill-opacity:1;fill-rule:evenodd;stroke:#000000;stroke-width:1pt;stroke-opacity:1"
         d="M 0,0 5,-5 -12.5,0 5,5 0,0 Z"
         id="path4788"
         inkscape:connector-curvature="0" />
    </marker>
    <marker
       inkscape:isstock="true"
       style="overflow:visible"
       id="Arrow1Mend"
       refX="0"
       refY="0"
       orient="auto"
       inkscape:stockid="Arrow1Mend"
       inkscape:collect="always">
      <path
         transform="matrix(-0.4,0,0,-0.4,-4,0)"
         style="fill:#000000;fill-opacity:1;fill-rule:evenodd;stroke:#000000;stroke-width:1pt;stroke-opacity:1"
         d="M 0,0 5,-5 -12.5,0 5,5 0,0 Z"
         id="path4491"
         inkscape:connector-curvature="0" />
    </marker>
    <marker
       inkscape:isstock="true"
       style="overflow:visible"
       id="Arrow1Lend"
       refX="0"
       refY="0"
       orient="auto"
       inkscape:stockid="Arrow1Lend">
      <path
         transform="matrix(-0.8,0,0,-0.8,-10,0)"
         style="fill:#000000;fill-opacity:1;fill-rule:evenodd;stroke:#000000;stroke-width:1pt;stroke-opacity:1"
         d="M 0,0 5,-5 -12.5,0 5,5 0,0 Z"
         id="path4485"
         inkscape:connector-curvature="0" />
    </marker>
    <clipPath
       clipPathUnits="userSpaceOnUse"
       id="clipPath4265">
      <rect
         style="opacity:1;fill:none;fill-opacity:1;stroke:#000000;stroke-width:2;stroke-miterlimit:4;stroke-dasharray:4, 8;stroke-dashoffset:0;stroke-opacity:1"
         id="rect4267"
         width="452.92502"
         height="345.12939"
         x="718.7168"
         y="402.00748" />
    </clipPath>
  </defs>
  <metadata
     id="metadata7">
    <rdf:RDF>
      <cc:Work
         rdf:about="">
        <dc:format>image/svg+xml</dc:format>
        <dc:type
           rdf:resource="http://purl.org/dc/dcmitype/StillImage" />
        <dc:title></dc:title>
      </cc:Work>
    </rdf:RDF>
  </metadata>
  <g
     inkscape:label="Gear40"
     transform="translate(922.71225,491.94152)"
     id="g6453"
     style="stroke-width:2;stroke-miterlimit:4;stroke-dasharray:none">
    <path
       style="fill:none;stroke:#000000;stroke-width:2;stroke-miterlimit:4;stroke-dasharray:none"
       d="m 120.78729,-6.41942 6.4385,1.42071 6.44244,2.57757 0,4.84228 -6.44244,2.57757 -6.4385,1.42071 -0.48287,6.13549 6.13698,2.41042 5.9599,3.55366 -0.7575,4.78266 -6.76634,1.53802 -6.58148,0.39601 -1.43673,5.98442 5.68436,3.34077 5.3306,4.44224 -1.49634,4.60528 -6.92364,0.4606 -6.5624,-0.63844 -2.35521,5.68599 5.09176,4.18887 4.57006,5.22145 -2.19835,4.31449 -6.91045,-0.62816 -6.38173,-1.65716 -3.2157,5.24754 4.37379,4.93383 3.69698,5.87207 -2.84622,3.91748 -6.7271,-1.70146 -6.04393,-2.63508 -3.997,4.67989 3.54812,5.5573 2.73286,6.37811 -3.424,3.424 -6.37811,-2.73286 -5.5573,-3.54812 -4.67989,3.997 2.63508,6.04393 1.70146,6.7271 -3.91748,2.84622 -5.87207,-3.69698 -4.93383,-4.37379 -5.24754,3.2157 1.65716,6.38173 0.62816,6.91045 -4.31449,2.19835 -5.22145,-4.57006 -4.18887,-5.09176 -5.68599,2.35521 0.63844,6.5624 -0.4606,6.92364 -4.60528,1.49634 -4.44224,-5.3306 -3.34077,-5.68436 -5.98442,1.43673 -0.39601,6.58148 -1.53802,6.76634 -4.78266,0.7575 -3.55366,-5.9599 -2.41042,-6.13698 -6.13549,0.48287 -1.42071,6.4385 -2.57757,6.44244 -4.84228,0 -2.57757,-6.44244 -1.42071,-6.4385 -6.13549,-0.48287 -2.41042,6.13698 -3.55366,5.9599 -4.78266,-0.7575 -1.53802,-6.76634 -0.39601,-6.58148 -5.98442,-1.43673 -3.34077,5.68436 -4.44224,5.3306 -4.60528,-1.49634 -0.4606,-6.92364 0.63844,-6.5624 -5.68599,-2.35521 -4.18887,5.09176 -5.22145,4.57006 -4.31449,-2.19835 0.62816,-6.91045 1.65716,-6.38173 -5.24754,-3.2157 -4.93383,4.37379 -5.87207,3.69698 -3.91748,-2.84622 1.70146,-6.7271 2.63508,-6.04393 -4.67989,-3.997 -5.5573,3.54812 -6.37811,2.73286 -3.424,-3.424 2.73286,-6.37811 3.54812,-5.5573 -3.997,-4.67989 -6.04393,2.63508 -6.7271,1.70146 -2.84622,-3.91748 3.69698,-5.87207 4.37379,-4.93383 -3.2157,-5.24754 -6.38173,1.65716 -6.91045,0.62816 -2.19835,-4.31449 4.57006,-5.22145 5.09176,-4.18887 -2.35521,-5.68599 -6.5624,0.63844 -6.92364,-0.4606 -1.49634,-4.60528 5.3306,-4.44224 5.68436,-3.34077 -1.43673,-5.98442 -6.58148,-0.39601 -6.76634,-1.53802 -0.7575,-4.78266 5.9599,-3.55366 6.13698,-2.41042 -0.48287,-6.13549 -6.4385,-1.42071 -6.44244,-2.57757 0,-4.84228 6.44244,-2.57757 6.4385,-1.42071 0.48287,-6.13549 -6.13698,-2.41042 -5.9599,-3.55366 0.7575,-4.78266 6.76634,-1.53802 6.58148,-0.39601 1.43673,-5.98442 -5.68436,-3.34077 -5.3306,-4.44224 1.49634,-4.60528 6.92364,-0.4606 6.5624,0.63844 2.35521,-5.68599 -5.09176,-4.18887 -4.57006,-5.22145 2.19835,-4.31449 6.91045,0.62816 6.38173,1.65716 3.2157,-5.24754 -4.37379,-4.93383 -3.69698,-5.87207 2.84622,-3.91748 6.7271,1.70146 6.04393,2.63508 3.997,-4.67989 -3.54812,-5.5573 -2.73286,-6.37811 3.424,-3.424 6.37811,2.73286 5.5573,3.54812 4.67989,-3.997 -2.63508,-6.04393 -1.70146,-6.7271 3.91748,-2.84622 5.87207,3.69698 4.93383,4.37379 5.24754,-3.2157 -1.65716,-6.38173 -0.62816,-6.91045 4.31449,-2.19835 5.22145,4.57006 4.18887,5.09176 5.68599,-2.35521 -0.63844,-6.5624 0.4606,-6.92364 4.60528,-1.49634 4.44224,5.3306 3.34077,5.68436 5.98442,-1.43673 0.39601,-6.58148 1.53802,-6.76634 4.78266,-0.7575 3.55366,5.9599 2.41042,6.13698 6.13549,-0.48287 1.42071,-6.4385 2.57757,-6.44244 4.84228,0 2.57757,6.44244 1.42071,6.4385 6.13549,0.48287 2.41042,-6.13698 3.55366,-5.9599 4.78266,0.7575 1.53802,6.76634 0.39601,6.58148 5.98442,1.43673 3.34077,-5.68436 4.44224,-5.3306 4.60528,1.49634 0.4606,6.92364 -0.63844,6.5624 5.68599,2.35521 4.18887,-5.09176 5.22145,-4.57006 4.31449,2.19835 -0.62816,6.91045 -1.65716,6.38173 5.24754,3.2157 4.93383,-4.37379 5.87207,-3.69698 3.91748,2.84622 -1.70146,6.7271 -2.63508,6.04393 4.67989,3.997 5.5573,-3.54812 6.37811,-2.73286 3.424,3.424 -2.73286,6.37811 -3.54812,5.5573 3.997,4.67989 6.04393,-2.63508 6.7271,-1.70146 2.84622,3.91748 -3.69698,5.87207 -4.37379,4.93383 3.2157,5.24754 6.38173,-1.65716 6.91045,-0.62816 2.19835,4.31449 -4.57006,5.22145 -5.09176,4.18887 2.35521,5.68599 6.5624,-0.63844 6.92364,0.4606 1.49634,4.60528 -5.3306,4.44224 -5.68436,3.34077 1.43673,5.98442 6.58148,0.39601 6.76634,1.53802 0.7575,4.78266 -5.9599,3.55366 -6.13698,2.41042 z"
       id="path6455"
       inkscape:connector-curvature="0" />
    <circle
       style="fill:none;stroke:#000000;stroke-width:2;stroke-miterlimit:4;stroke-dasharray:none"
       id="path6457"
       cx="0"
       cy="0"
       r="150" />
  </g>
  <g
     inkscape:label="Calque 1"
     inkscape:groupmode="layer"
     id="layer1"
     transform="translate(-19.41568,-75.748444)">
    <path
       inkscape:connector-curvature="0"
       style="fill:none;stroke:#000000;stroke-width:2;stroke-miterlimit:4;stroke-dasharray:none"
       d="m 1152.8581,550.62491 5.2873,-0.42588 14.098,2.30985 19.5959,8.20167 0,13.73886 -19.5959,8.20167 -14.098,2.30985 -5.2873,-0.42588 -2.7852,21.16185 5.2173,0.95746 13.02,5.88105 16.8061,12.99551 -3.5548,13.27071 -21.0504,2.84894 -14.2153,-1.41878 -4.9969,-1.78024 -8.1657,19.71971 4.7917,2.2756 11.0547,9.0515 12.871,16.9037 -6.8675,11.8981 -21.0701,-2.6979 -13.3639,-5.0507 -4.366,-3.0133 -12.9899,16.9337 4.0398,3.4386 8.3359,11.6051 8.0587,19.6599 -9.712,9.7148 -19.6541,-8.061 -11.6017,-8.3384 -3.4376,-4.041 -16.9287,12.9937 3.0124,4.3673 5.0492,13.3678 2.6972,21.0764 -11.8947,6.8695 -16.8987,-12.8748 -9.0489,-11.0579 -2.2749,-4.7932 -19.7139,8.1682 1.7797,4.9984 1.4184,14.2194 -2.8481,21.0566 -13.2668,3.5558 -12.99167,-16.811 -5.87932,-13.0238 -0.95718,-5.2189 -21.15562,2.7861 0.42576,5.2888 -2.30917,14.1022 -8.19925,19.6017 -13.73482,0 -8.19925,-19.6017 -2.30917,-14.1022 0.42576,-5.2888 -21.15562,-2.7861 -0.95718,5.2189 -5.87932,13.0238 -12.99167,16.811 -13.26681,-3.5558 -2.8481,-21.0566 1.41837,-14.2194 1.77971,-4.9984 -19.71389,-8.1682 -2.27491,4.7932 -9.04884,11.0579 -16.89872,12.8748 -11.89467,-6.8695 2.69717,-21.0764 5.04922,-13.3678 3.01238,-4.3673 -16.92872,-12.9937 -3.4376,4.041 -11.60165,8.3384 -19.65415,8.061 -9.71198,-9.7148 8.05865,-19.6599 8.33597,-11.6051 4.03976,-3.4386 -12.98987,-16.9337 -4.36603,3.0133 -13.36384,5.0507 -21.07016,2.6979 -6.86744,-11.8981 12.87094,-16.9037 11.05467,-9.0515 4.79179,-2.2756 -8.16575,-19.71971 -4.99693,1.78024 -14.2153,1.41878 -21.05032,-2.84894 -3.55483,-13.27071 16.80605,-12.99551 13.02002,-5.88105 5.2173,-0.95746 -2.78519,-21.16185 -5.28726,0.42588 -14.09806,-2.30985 -19.59589,-8.20167 0,-13.73886 19.59589,-8.20167 14.09806,-2.30985 5.28726,0.42588 2.78519,-21.16185 -5.2173,-0.95746 -13.02002,-5.88105 -16.80605,-12.99551 3.55483,-13.27071 21.05032,-2.84894 14.2153,1.41878 4.99693,1.78024 8.16575,-19.7197 -4.79179,-2.27558 -11.05467,-9.0515 -12.87094,-16.9037 6.86744,-11.89818 21.07016,2.69797 13.36384,5.0507 4.36603,3.01327 12.98987,-16.93371 -4.03976,-3.43861 -8.33597,-11.60507 -8.05865,-19.65994 9.71198,-9.71484 19.65415,8.06102 11.60165,8.33843 3.4376,4.04095 16.92872,-12.9937 -3.01238,-4.36731 -5.04922,-13.36779 -2.69717,-21.07637 11.89467,-6.86946 16.89872,12.87473 9.04884,11.05794 2.27491,4.7932 19.71389,-8.16816 -1.77971,-4.99841 -1.41837,-14.21948 2.8481,-21.05652 13.26681,-3.55589 12.99167,16.81101 5.87932,13.02386 0.95718,5.21884 21.15562,-2.78602 -0.42576,-5.28882 2.30917,-14.10221 8.19925,-19.60166 13.73482,0 8.19925,19.60166 2.30917,14.10221 -0.42576,5.28882 21.15562,2.78602 0.95718,-5.21884 5.87932,-13.02386 12.99167,-16.81101 13.2668,3.55589 2.8481,21.05652 -1.4184,14.21948 -1.7797,4.99841 19.7139,8.16816 2.2749,-4.7932 9.0489,-11.05794 16.8987,-12.87473 11.8947,6.86946 -2.6972,21.07637 -5.0492,13.36779 -3.0124,4.36731 16.9287,12.9937 3.4376,-4.04095 11.6017,-8.33843 19.6541,-8.06102 9.712,9.71484 -8.0587,19.65994 -8.3359,11.60507 -4.0398,3.43861 12.9899,16.93371 4.366,-3.01327 13.3639,-5.0507 21.0701,-2.69797 6.8675,11.89818 -12.871,16.9037 -11.0547,9.0515 -4.7917,2.27558 8.1657,19.7197 4.9969,-1.78024 14.2153,-1.41878 21.0504,2.84894 3.5548,13.27071 -16.8061,12.99551 -13.02,5.88105 -5.2173,0.95746 z"
       id="path7586"
       clip-path="url(#clipPath4265)" />
    <g
       style="stroke-width:2;stroke-miterlimit:4;stroke-dasharray:none"
       inkscape:label="Gear24"
       transform="translate(335.41591,610.55984)"
       id="g4181">
      <path
         inkscape:connector-curvature="0"
         style="fill:none;stroke:#000000;stroke-width:2;stroke-miterlimit:4;stroke-dasharray:none"
         d="m 69.80222,-5.62101 1.75337,-0.14119 4.67522,0.76577 6.49842,2.71905 0,4.55476 -6.49842,2.71905 -4.67522,0.76577 -1.75337,-0.14119 -0.92363,7.01566 1.73017,0.31742 4.31772,1.94971 5.57325,4.30832 -1.17886,4.39956 -6.98074,0.94449 -4.7141,-0.47036 -1.65709,-0.59019 -2.70794,6.53755 1.58906,0.75441 3.66597,3.00079 4.26828,5.60398 -2.27739,3.94453 -6.98732,-0.89444 -4.43174,-1.67443 -1.44787,-0.99897 -4.30772,5.61393 1.33967,1.13998 2.76439,3.84736 2.67242,6.51774 -3.2207,3.2207 -6.51774,-2.67242 -3.84736,-2.76439 -1.13998,-1.33967 -5.61393,4.30772 0.99897,1.44787 1.67443,4.43174 0.89444,6.98732 -3.94453,2.27739 -5.60398,-4.26828 -3.00079,-3.66597 -0.75441,-1.58906 -6.53755,2.70794 0.59019,1.65709 0.47036,4.7141 -0.94449,6.98074 -4.39956,1.17886 -4.30832,-5.57325 -1.94971,-4.31772 -0.31742,-1.73017 -7.01566,0.92363 0.14119,1.75337 -0.76577,4.67522 -2.71905,6.49842 -4.55476,0 -2.71905,-6.49842 -0.76577,-4.67522 0.14119,-1.75337 -7.01566,-0.92363 -0.31742,1.73017 -1.94971,4.31772 -4.30832,5.57325 -4.39956,-1.17886 -0.94449,-6.98074 0.47036,-4.7141 0.59019,-1.65709 -6.53755,-2.70794 -0.75441,1.58906 -3.00079,3.66597 -5.60398,4.26828 -3.94453,-2.27739 0.89444,-6.98732 1.67443,-4.43174 0.99897,-1.44787 -5.61393,-4.30772 -1.13998,1.33967 -3.84736,2.76439 -6.51774,2.67242 -3.2207,-3.2207 2.67242,-6.51774 2.76439,-3.84736 1.33967,-1.13998 -4.30772,-5.61393 -1.44787,0.99897 -4.43174,1.67443 -6.98732,0.89444 -2.27739,-3.94453 4.26828,-5.60398 3.66597,-3.00079 1.58906,-0.75441 -2.70794,-6.53755 -1.65709,0.59019 -4.7141,0.47036 -6.98074,-0.94449 -1.17886,-4.39956 5.57325,-4.30832 4.31772,-1.94971 1.73017,-0.31742 -0.92363,-7.01566 -1.75337,0.14119 -4.67522,-0.76577 -6.49842,-2.71905 0,-4.55476 6.49842,-2.71905 4.67522,-0.76577 1.75337,0.14119 0.92363,-7.01566 -1.73017,-0.31742 -4.31772,-1.94971 -5.57325,-4.30832 1.17886,-4.39956 6.98074,-0.94449 4.7141,0.47036 1.65709,0.59019 2.70794,-6.53755 -1.58906,-0.75441 -3.66597,-3.00079 -4.26828,-5.60398 2.27739,-3.94453 6.98732,0.89444 4.43174,1.67443 1.44787,0.99897 4.30772,-5.61393 -1.33967,-1.13998 -2.76439,-3.84736 -2.67242,-6.51774 3.2207,-3.2207 6.51774,2.67242 3.84736,2.76439 1.13998,1.33967 5.61393,-4.30772 -0.99897,-1.44787 -1.67443,-4.43174 -0.89444,-6.98732 3.94453,-2.27739 5.60398,4.26828 3.00079,3.66597 0.75441,1.58906 6.53755,-2.70794 -0.59019,-1.65709 -0.47036,-4.7141 0.94449,-6.98074 4.39956,-1.17886 4.30832,5.57325 1.94971,4.31772 0.31742,1.73017 7.01566,-0.92363 -0.14119,-1.75337 0.76577,-4.67522 2.71905,-6.49842 4.55476,0 2.71905,6.49842 0.76577,4.67522 -0.14119,1.75337 7.01566,0.92363 0.31742,-1.73017 1.94971,-4.31772 4.30832,-5.57325 4.39956,1.17886 0.94449,6.98074 -0.47036,4.7141 -0.59019,1.65709 6.53755,2.70794 0.75441,-1.58906 3.00079,-3.66597 5.60398,-4.26828 3.94453,2.27739 -0.89444,6.98732 -1.67443,4.43174 -0.99897,1.44787 5.61393,4.30772 1.13998,-1.33967 3.84736,-2.76439 6.51774,-2.67242 3.2207,3.2207 -2.67242,6.51774 -2.76439,3.84736 -1.33967,1.13998 4.30772,5.61393 1.44787,-0.99897 4.43174,-1.67443 6.98732,-0.89444 2.27739,3.94453 -4.26828,5.60398 -3.66597,3.00079 -1.58906,0.75441 2.70794,6.53755 1.65709,-0.59019 4.7141,-0.47036 6.98074,0.94449 1.17886,4.39956 -5.57325,4.30832 -4.31772,1.94971 -1.73017,0.31742 z"
         id="path4183" />
      <circle
         r="50"
         cy="0"
         cx="0"
         style="fill:none;stroke:#000000;stroke-width:2;stroke-miterlimit:4;stroke-dasharray:none"
         id="path4185" />
      <path
         sodipodi:open="true"
         d="m -44.092803,-91.442936 a 89.647552,85.652519 0 0 1 87.030752,-2.737813 89.647552,85.652519 0 0 1 48.407323,69.15731"
         sodipodi:end="6.2008575"
         sodipodi:start="4.1723483"
         sodipodi:ry="85.652519"
         sodipodi:rx="89.647552"
         sodipodi:cy="-17.979818"
         sodipodi:cx="2.0013578"
         sodipodi:type="arc"
         id="circle4476"
         style="fill:none;stroke:#000000;stroke-width:4.60018444;stroke-miterlimit:4;stroke-dasharray:none;marker-end:url(#Arrow1Mend)" />
    </g>
    <path
       style="fill:none;stroke:#000000;stroke-width:2;stroke-miterlimit:4;stroke-dasharray:none"
       d="m 625.44223,394.8019 6.40872,1.94675 6.39866,2.44215 0,5.1152 -6.39866,2.44215 -6.40872,1.94675 -0.19756,5.65758 6.2573,2.38907 6.21272,2.88255 -0.35682,5.10273 -6.55343,1.98985 -6.5289,1.49497 -0.59174,5.63001 6.07541,2.81974 5.99651,3.3089 -0.7119,5.06541 -6.67627,1.52786 -6.61728,1.0359 -0.98303,5.57502 5.86391,3.23666 5.75109,3.71914 -1.06351,5.00341 -6.76659,1.05843 -6.67342,0.57177 -1.36952,5.49287 5.62385,3.63782 5.47764,4.11126 -1.40994,4.91704 -6.82394,0.58383 -6.69705,0.10487 -1.74935,5.38395 5.35639,4.02127 5.17751,4.48334 -1.7495,4.8067 -6.84804,0.10641 -6.68805,-0.36256 -2.12066,5.24881 5.06284,4.38511 4.85215,4.83359 -2.08053,4.67296 -6.83878,-0.37156 -6.64647,-0.8282 -2.48163,5.08809 4.74461,4.7276 4.50316,5.16028 -2.40144,4.51644 -6.7962,-0.84769 -6.5725,-1.28983 -2.83052,4.9026 4.40327,5.04704 4.13223,5.46184 -2.71064,4.33792 -6.72051,-1.31971 -6.46652,-1.74515 -3.16561,4.6932 4.04048,5.34191 3.74117,5.73678 -3.00663,4.13827 -6.61209,-1.7853 -6.32903,-2.19198 -3.48528,4.46095 3.65801,5.61074 3.33187,5.98378 -3.28798,3.91846 -6.47144,-2.24218 -6.16071,-2.62814 -3.78797,4.20696 3.25771,5.85225 2.90635,6.20162 -3.55331,3.67956 -6.29927,-2.68815 -5.96237,-3.05148 -4.0722,3.93248 2.84154,6.06523 2.46667,6.38925 -3.80133,3.42273 -6.09641,-3.12101 -5.73499,-3.45997 -4.3366,3.63884 2.41153,6.24868 2.01497,6.54575 -4.03083,3.14923 -5.86385,-3.53868 -5.47966,-3.85159 -4.57987,3.32747 1.96978,6.40167 1.55345,6.67037 -4.24069,2.86038 -5.60272,-3.9391 -5.19764,-4.22445 -4.80082,2.99989 1.51841,6.52348 1.08437,6.76248 -4.42989,2.5576 -5.31429,-4.32033 -4.8903,-4.57673 -4.99839,2.65769 1.05966,6.61352 0.61,6.82164 -4.59751,2.24236 -4.99998,-4.68051 -4.55913,-4.90671 -5.1716,2.30254 0.59574,6.67133 0.13266,6.84758 -4.74272,1.91618 -4.6613,-5.01789 -4.20575,-5.21278 -5.31963,1.93618 0.12893,6.69663 -0.34533,6.84015 -4.86484,1.58068 -4.29992,-5.33082 -3.83187,-5.49346 -5.44173,1.56039 -0.33853,6.68931 -0.82163,6.7994 -4.96325,1.23748 -3.91758,-5.61779 -3.43934,-5.74738 -5.53732,1.17699 -0.80432,6.6494 -1.29393,6.72553 -5.03748,0.88824 -3.51617,-5.87737 -3.03004,-5.9733 -5.60593,0.78786 -1.2662,6.5771 -1.75994,6.61888 -5.08716,0.53468 -3.09762,-6.10833 -2.60599,-6.17011 -5.64723,0.39489 -1.72191,6.47275 -2.21736,6.47999 -5.11207,0.17852 -2.66397,-6.30953 -2.16924,-6.33687 -5.66102,0 -2.16924,6.33687 -2.66397,6.30953 -5.11207,-0.17852 -2.21736,-6.47999 -1.72191,-6.47275 -5.64723,-0.39489 -2.60599,6.17011 -3.09762,6.10833 -5.08716,-0.53468 -1.75994,-6.61888 -1.2662,-6.5771 -5.60593,-0.78786 -3.03004,5.9733 -3.51617,5.87737 -5.03748,-0.88824 -1.29393,-6.72553 -0.80432,-6.6494 -5.53732,-1.17699 -3.43934,5.74738 -3.91758,5.61779 -4.96325,-1.23748 -0.82163,-6.7994 -0.33853,-6.68931 -5.44173,-1.56039 -3.83187,5.49346 -4.29992,5.33082 -4.86484,-1.58068 -0.34533,-6.84015 0.12893,-6.69663 -5.31963,-1.93618 -4.20575,5.21278 -4.6613,5.01789 -4.74272,-1.91618 0.13266,-6.84758 0.59574,-6.67133 -5.1716,-2.30254 -4.55913,4.90671 -4.99998,4.68051 -4.59751,-2.24236 0.61,-6.82164 1.05966,-6.61352 -4.99839,-2.65769 -4.8903,4.57673 -5.31429,4.32033 -4.42989,-2.5576 1.08437,-6.76248 1.51841,-6.52348 -4.80082,-2.99989 -5.19764,4.22445 -5.60272,3.9391 -4.24069,-2.86038 1.55345,-6.67037 1.96978,-6.40167 -4.57987,-3.32747 -5.47966,3.85159 -5.86385,3.53868 -4.03083,-3.14923 2.01497,-6.54575 2.41153,-6.24868 -4.3366,-3.63884 -5.73499,3.45997 -6.09641,3.12101 -3.80133,-3.42273 2.46667,-6.38925 2.84154,-6.06523 -4.0722,-3.93248 -5.96237,3.05148 -6.29927,2.68815 -3.55331,-3.67956 2.90635,-6.20162 3.25771,-5.85225 -3.78797,-4.20696 -6.16071,2.62814 -6.47144,2.24218 -3.28798,-3.91846 3.33187,-5.98378 3.65801,-5.61074 -3.48528,-4.46095 -6.32903,2.19198 -6.6121,1.7853 -3.00663,-4.13827 3.74117,-5.73678 4.04049,-5.34191 -3.16561,-4.6932 -6.46653,1.74515 -6.720506,1.31971 -2.71064,-4.33792 4.13223,-5.46184 4.403266,-5.04704 -2.83052,-4.9026 -6.572496,1.28983 -6.7962,0.84769 -2.40144,-4.51644 4.50316,-5.16028 4.74461,-4.7276 -2.48163,-5.08809 -6.64647,0.8282 -6.83878,0.37156 -2.08053,-4.67296 4.85215,-4.83359 5.06284,-4.38511 -2.12066,-5.24881 -6.68805,0.36256 -6.84804,-0.10641 -1.7495,-4.8067 5.17751,-4.48334 5.35639,-4.02127 -1.74935,-5.38395 -6.69705,-0.10487 -6.82394,-0.58383 -1.40994,-4.91704 5.47764,-4.11126 5.62385,-3.63782 -1.36952,-5.49287 -6.67342,-0.57177 -6.76659,-1.05843 -1.06351,-5.00341 5.75109,-3.71914 5.86391,-3.23666 -0.98303,-5.57502 -6.61728,-1.0359 -6.67627,-1.52786 -0.7119,-5.06541 5.99651,-3.3089 6.07541,-2.81974 -0.59174,-5.63001 -6.5289,-1.49497 -6.55343,-1.98985 -0.35682,-5.10273 6.21272,-2.88255 6.2573,-2.38907 -0.19756,-5.65758 -6.40872,-1.94675 -6.39866,-2.44215 0,-5.1152 6.39866,-2.44215 6.40872,-1.94675 0.19756,-5.65758 -6.2573,-2.38907 -6.21272,-2.88255 0.35682,-5.10273 6.55343,-1.98985 6.5289,-1.49497 0.59174,-5.63001 -6.07541,-2.81974 -5.99651,-3.3089 0.7119,-5.06541 6.67627,-1.52786 6.61728,-1.0359 0.98303,-5.57502 -5.86391,-3.23666 -5.75109,-3.71914 1.06351,-5.00341 6.76659,-1.05843 6.67342,-0.57177 1.36952,-5.49287 -5.62385,-3.63782 -5.47764,-4.11126 1.40994,-4.91704 6.82394,-0.58383 6.69705,-0.10487 1.74935,-5.38395 -5.35639,-4.02127 -5.17751,-4.48334 1.7495,-4.8067 6.84804,-0.10641 6.68805,0.36256 2.12066,-5.24881 -5.06284,-4.38511 -4.85215,-4.83359 2.08053,-4.67296 6.83878,0.37156 6.64647,0.8282 2.48163,-5.08809 -4.74461,-4.7276 -4.50316,-5.16028 2.40144,-4.51644 6.7962,0.84769 6.572496,1.28983 2.83052,-4.9026 -4.403266,-5.04704 -4.13223,-5.46184 2.71064,-4.33792 6.720506,1.31971 6.46653,1.74515 3.16561,-4.6932 -4.04049,-5.34191 -3.74117,-5.73678 3.00663,-4.13827 6.6121,1.7853 6.32903,2.19198 3.48528,-4.46095 -3.65801,-5.61074 -3.33187,-5.98378 3.28798,-3.91846 6.47144,2.24218 6.16071,2.62814 3.78797,-4.20696 -3.25771,-5.85225 -2.90635,-6.20162 3.55331,-3.67956 6.29927,2.68815 5.96237,3.05148 4.0722,-3.93248 -2.84154,-6.06523 -2.46667,-6.38925 3.80133,-3.42273 6.09641,3.12101 5.73499,3.45997 4.3366,-3.63884 -2.41153,-6.24868 -2.01497,-6.54575 4.03083,-3.14923 5.86385,3.53868 5.47966,3.85159 4.57987,-3.32747 -1.96978,-6.40167 -1.55345,-6.67037 4.24069,-2.86038 5.60272,3.9391 5.19764,4.22445 4.80082,-2.99989 -1.51841,-6.52348 -1.08437,-6.76248 4.42989,-2.5576 5.31429,4.32033 4.8903,4.57673 4.99839,-2.65769 -1.05966,-6.61352 -0.61,-6.82164 4.59751,-2.24236 4.99998,4.68051 4.55913,4.90671 5.1716,-2.30254 -0.59574,-6.67133 -0.13266,-6.84758 4.74272,-1.91618 4.6613,5.01789 4.20575,5.21278 5.31963,-1.93618 -0.12893,-6.69663 0.34533,-6.84015 4.86484,-1.58068 4.29992,5.33082 3.83187,5.49346 5.44173,-1.56039 0.33853,-6.68931 0.82163,-6.7994 4.96325,-1.23748 3.91758,5.61779 3.43934,5.74738 5.53732,-1.17699 0.80432,-6.6494 1.29393,-6.72553 5.03748,-0.88824 3.51617,5.87737 3.03004,5.9733 5.60593,-0.78786 1.2662,-6.5771 1.75994,-6.61888 5.08716,-0.53468 3.09762,6.10833 2.60599,6.17011 5.64723,-0.39489 1.72191,-6.47275 2.21736,-6.47999 5.11207,-0.17852 2.66397,6.30953 2.16924,6.33687 5.66102,0 2.16924,-6.33687 2.66397,-6.30953 5.11207,0.17852 2.21736,6.47999 1.72191,6.47275 5.64723,0.39489 2.60599,-6.17011 3.09762,-6.10833 5.08716,0.53468 1.75994,6.61888 1.2662,6.5771 5.60593,0.78786 3.03004,-5.9733 3.51617,-5.87737 5.03748,0.88824 1.29393,6.72553 0.80432,6.6494 5.53732,1.17699 3.43934,-5.74738 3.91758,-5.61779 4.96325,1.23748 0.82163,6.7994 0.33853,6.68931 5.44173,1.56039 3.83187,-5.49346 4.29992,-5.33082 4.86484,1.58068 0.34533,6.84015 -0.12893,6.69663 5.31963,1.93618 4.20575,-5.21278 4.6613,-5.01789 4.74272,1.91618 -0.13266,6.84758 -0.59574,6.67133 5.1716,2.30254 4.55913,-4.90671 4.99998,-4.68051 4.59751,2.24236 -0.61,6.82164 -1.05966,6.61352 4.99839,2.65769 4.8903,-4.57673 5.31429,-4.32033 4.42989,2.5576 -1.08437,6.76248 -1.51841,6.52348 4.80082,2.99989 5.19764,-4.22445 5.60272,-3.9391 4.24069,2.86038 -1.55345,6.67037 -1.96978,6.40167 4.57987,3.32747 5.47966,-3.85159 5.86385,-3.53868 4.03083,3.14923 -2.01497,6.54575 -2.41153,6.24868 4.3366,3.63884 5.73499,-3.45997 6.09641,-3.12101 3.80133,3.42273 -2.46667,6.38925 -2.84154,6.06523 4.0722,3.93248 5.96237,-3.05148 6.29927,-2.68815 3.55331,3.67956 -2.90635,6.20162 -3.25771,5.85225 3.78797,4.20696 6.16071,-2.62814 6.47144,-2.24218 3.28798,3.91846 -3.33187,5.98378 -3.65801,5.61074 3.48528,4.46095 6.32903,-2.19198 6.61209,-1.7853 3.00663,4.13827 -3.74117,5.73678 -4.04048,5.34191 3.16561,4.6932 6.46652,-1.74515 6.72051,-1.31971 2.71064,4.33792 -4.13223,5.46184 -4.40327,5.04704 2.83052,4.9026 6.5725,-1.28983 6.7962,-0.84769 2.40144,4.51644 -4.50316,5.16028 -4.74461,4.7276 2.48163,5.08809 6.64647,-0.8282 6.83878,-0.37156 2.08053,4.67296 -4.85215,4.83359 -5.06284,4.38511 2.12066,5.24881 6.68805,-0.36256 6.84804,0.10641 1.7495,4.8067 -5.17751,4.48334 -5.35639,4.02127 1.74935,5.38395 6.69705,0.10487 6.82394,0.58383 1.40994,4.91704 -5.47764,4.11126 -5.62385,3.63782 1.36952,5.49287 6.67342,0.57177 6.76659,1.05843 1.06351,5.00341 -5.75109,3.71914 -5.86391,3.23666 0.98303,5.57502 6.61728,1.0359 6.67627,1.52786 0.7119,5.06541 -5.99651,3.3089 -6.07541,2.81974 0.59174,5.63001 6.5289,1.49497 6.55343,1.98985 0.35682,5.10273 -6.21272,2.88255 -6.2573,2.38907 z"
       id="path4406"
       inkscape:connector-curvature="0" />
    <text
       xml:space="preserve"
       style="font-style:normal;font-variant:normal;font-weight:normal;font-stretch:normal;font-size:40px;line-height:125%;font-family:'Times New Roman';-inkscape-font-specification:'Times New Roman, Normal';text-align:start;letter-spacing:0px;word-spacing:0px;writing-mode:lr-tb;text-anchor:start;fill:#000000;fill-opacity:1;stroke:none;stroke-width:1px;stroke-linecap:butt;stroke-linejoin:miter;stroke-opacity:1"
       x="841.76416"
       y="620.57153"
       id="text4456"
       sodipodi:linespacing="125%"><tspan
         sodipodi:role="line"
         id="tspan4458"
         x="841.76416"
         y="620.57153"
         style="font-style:italic;font-variant:normal;font-weight:normal;font-stretch:normal;font-size:40px;line-height:125%;font-family:'Times New Roman';-inkscape-font-specification:'Times New Roman, Italic';text-align:start;writing-mode:lr-tb;text-anchor:start">N<tspan
   style="font-size:64.99999762%;baseline-shift:sub"
   id="tspan4470">ms</tspan></tspan></text>
    <text
       xml:space="preserve"
       style="font-style:normal;font-weight:normal;font-size:40px;line-height:125%;font-family:sans-serif;letter-spacing:0px;word-spacing:0px;fill:#000000;fill-opacity:1;stroke:none;stroke-width:1px;stroke-linecap:butt;stroke-linejoin:miter;stroke-opacity:1"
       x="186.20612"
       y="616.10089"
       id="text4462"
       sodipodi:linespacing="125%"><tspan
         sodipodi:role="line"
         id="tspan4464"
         x="186.20612"
         y="616.10089"
         style="font-style:italic;font-variant:normal;font-weight:normal;font-stretch:normal;font-size:40px;line-height:125%;font-family:'Times New Roman';-inkscape-font-specification:'Times New Roman, Italic';text-align:start;writing-mode:lr-tb;text-anchor:start">N<tspan
   style="font-size:64.99999762%;baseline-shift:sub"
   id="tspan4472">sw</tspan></tspan></text>
    <path
       id="circle4784"
       style="fill:none;stroke:#000000;stroke-width:4;stroke-miterlimit:4;stroke-dasharray:none;marker-end:url(#marker4786)"
       sodipodi:type="arc"
       sodipodi:cx="289.94708"
       sodipodi:cy="438.04837"
       sodipodi:rx="259.8002"
       sodipodi:ry="259.8002"
       sodipodi:start="0.52211998"
       sodipodi:end="1.2377956"
       sodipodi:open="true"
       d="M 515.13251,567.61561 A 259.8002,259.8002 0 0 1 374.87067,683.57664"
       transform="matrix(0.98436948,-0.17611566,0.17611566,0.98436948,0,0)" />
    <rect
       style="opacity:1;fill:none;fill-opacity:1;stroke:#000000;stroke-width:2;stroke-miterlimit:4;stroke-dasharray:4, 8;stroke-dashoffset:0;stroke-opacity:1"
       id="rect5192"
       width="93.831772"
       height="71.499924"
       x="286.53516"
       y="576.64893" />
    <rect
       y="402.00748"
       x="718.7168"
       height="345.12939"
       width="452.92502"
       id="rect5194"
       style="opacity:1;fill:none;fill-opacity:1;stroke:#000000;stroke-width:2;stroke-miterlimit:4;stroke-dasharray:4, 8;stroke-dashoffset:0;stroke-opacity:1" />
    <path
       style="fill:none;fill-rule:evenodd;stroke:#000000;stroke-width:2;stroke-linecap:butt;stroke-linejoin:miter;stroke-miterlimit:4;stroke-dasharray:4, 8;stroke-dashoffset:0;stroke-opacity:1"
       d="m 286.43652,646.69421 432,100.2477"
       id="path5196"
       inkscape:connector-curvature="0"
       sodipodi:nodetypes="cc" />
    <path
       sodipodi:nodetypes="cc"
       inkscape:connector-curvature="0"
       id="path5198"
       d="m 286.43652,577.38107 432,-175.96667"
       style="fill:none;fill-rule:evenodd;stroke:#000000;stroke-width:2;stroke-linecap:butt;stroke-linejoin:miter;stroke-miterlimit:4;stroke-dasharray:4, 8;stroke-dashoffset:0;stroke-opacity:1" />
    <text
       sodipodi:linespacing="125%"
       id="text4982"
       y="404.93866"
       x="492.95813"
       style="font-style:normal;font-weight:normal;font-size:40px;line-height:125%;font-family:sans-serif;letter-spacing:0px;word-spacing:0px;fill:#000000;fill-opacity:1;stroke:none;stroke-width:1px;stroke-linecap:butt;stroke-linejoin:miter;stroke-opacity:1"
       xml:space="preserve"><tspan
         style="font-style:italic;font-variant:normal;font-weight:normal;font-stretch:normal;font-size:40px;line-height:125%;font-family:'Times New Roman';-inkscape-font-specification:'Times New Roman, Italic';text-align:center;writing-mode:lr-tb;text-anchor:middle"
         y="404.93866"
         x="492.95813"
         id="tspan4984"
         sodipodi:role="line">rotational</tspan><tspan
         style="font-style:italic;font-variant:normal;font-weight:normal;font-stretch:normal;font-size:40px;line-height:125%;font-family:'Times New Roman';-inkscape-font-specification:'Times New Roman, Italic';text-align:center;writing-mode:lr-tb;text-anchor:middle"
         id="tspan4986"
         y="454.93866"
         x="492.95813"
         sodipodi:role="line">direction</tspan></text>
    <path
       d="m 911.1722,587.83039 a 53.590839,50.139996 0 0 1 54.29507,-11.62575 53.590839,50.139996 0 0 1 36.00373,39.76154"
       sodipodi:end="6.1267894"
       sodipodi:start="3.9409436"
       sodipodi:ry="50.139996"
       sodipodi:rx="53.590839"
       sodipodi:cy="623.77594"
       sodipodi:cx="948.53424"
       sodipodi:type="arc"
       id="path6615"
       style="fill:none;stroke:#000000;stroke-width:3;stroke-miterlimit:4;stroke-dasharray:none;marker-end:url(#marker6628)"
       sodipodi:open="true" />
    <path
       d="m 1033.6302,507.22806 a 54.343193,82.365166 0 0 1 1.6501,116.26032"
       sodipodi:open="true"
       sodipodi:end="0.76222008"
       sodipodi:start="5.4779495"
       sodipodi:ry="82.365166"
       sodipodi:rx="54.343193"
       sodipodi:cy="566.61285"
       sodipodi:cx="995.97357"
       sodipodi:type="arc"
       style="fill:none;stroke:#000000;stroke-width:3;stroke-miterlimit:4;stroke-dasharray:none;marker-end:url(#marker6658)"
       id="path6617" />
    <text
       xml:space="preserve"
       style="font-style:normal;font-weight:normal;font-size:17.74625778px;line-height:125%;font-family:sans-serif;letter-spacing:0px;word-spacing:0px;fill:#000000;fill-opacity:1;stroke:none;stroke-width:1px;stroke-linecap:butt;stroke-linejoin:miter;stroke-opacity:1"
       x="920.96381"
       y="517.56104"
       id="text6619"
       sodipodi:linespacing="125%"><tspan
         sodipodi:role="line"
         id="tspan6621"
         x="920.96381"
         y="517.56104"
         style="font-style:italic;font-variant:normal;font-weight:normal;font-stretch:normal;font-size:40px;line-height:125%;font-family:'Times New Roman';-inkscape-font-specification:'Times New Roman, Italic';text-align:center;writing-mode:lr-tb;text-anchor:middle">rotational</tspan><tspan
         sodipodi:role="line"
         x="920.96381"
         y="567.56104"
         id="tspan6623"
         style="font-style:italic;font-variant:normal;font-weight:normal;font-stretch:normal;font-size:40px;line-height:125%;font-family:'Times New Roman';-inkscape-font-specification:'Times New Roman, Italic';text-align:center;writing-mode:lr-tb;text-anchor:middle">direction</tspan></text>
    <circle
       style="fill:none;stroke:#000000;stroke-width:2;stroke-miterlimit:4;stroke-dasharray:none"
       id="path4408"
       cx="345.41568"
       cy="401.74844"
       r="325" />
  </g>
  <g
     id="g5939"
     transform="translate(927.22396,570.89653)"
     inkscape:label="Gear15"
     style="stroke-width:2;stroke-miterlimit:4;stroke-dasharray:none">
    <path
       id="path5941"
       d="m 41.08456,-4.93828 3.46182,-0.41611 2.93854,0.36352 6.58743,2.90203 0,4.17768 -6.58743,2.90203 -2.93854,0.36352 -3.46182,-0.41611 -1.54336,7.26097 3.33177,1.02792 2.53663,1.5273 4.83756,5.33048 -1.69922,3.81651 -7.19827,-0.02822 -2.83235,-0.86312 -2.99328,-1.78818 -4.36324,6.00548 2.62563,2.29421 1.69612,2.427 2.25123,6.83725 -3.10463,2.79542 -6.56447,-2.95358 -2.23642,-1.94053 -2.00718,-2.85105 -6.42866,3.71159 1.46549,3.1638 0.56233,2.90705 -0.72436,7.16179 -3.97321,1.29098 L 9.92705,46.70311 8.67326,44.02072 7.99924,40.59976 0.61672,41.37569 0.66869,44.86203 0,47.74648 l -3.5747,6.248 -4.1548,-0.43669 -2.19755,-6.85468 -0.05437,-2.96045 0.77568,-3.39935 -7.05986,-2.29389 -1.37055,3.20607 -1.78409,2.36309 -5.80694,4.25387 -3.61799,-2.08884 0.78049,-7.15589 1.15446,-2.72662 2.09126,-2.78997 -5.5165,-4.96707 -2.55609,2.37143 -2.591,1.43314 -7.03511,1.52421 -2.45558,-3.37982 3.62357,-6.21978 2.16366,-2.02133 3.04525,-1.69816 -3.01928,-6.78142 -3.29965,1.12676 -2.94991,0.25538 -7.04684,-1.469 -0.86859,-4.08639 5.84011,-4.20821 2.79875,-0.96654 3.47268,-0.31274 0,-7.42318 -3.47268,-0.31274 -2.79875,-0.96654 -5.84011,-4.20821 0.86859,-4.08639 7.04684,-1.469 2.94991,0.25538 3.29965,1.12676 3.01928,-6.78142 -3.04525,-1.69816 -2.16366,-2.02133 -3.62357,-6.21978 2.45558,-3.37982 7.03511,1.52421 2.591,1.43314 2.55609,2.37143 5.5165,-4.96707 -2.09126,-2.78997 -1.15446,-2.72662 -0.78049,-7.15589 3.61799,-2.08884 5.80694,4.25387 1.78409,2.36309 1.37055,3.20607 7.05986,-2.29389 -0.77568,-3.39935 0.05437,-2.96045 2.19755,-6.85468 4.1548,-0.43669 3.5747,6.248 0.66869,2.88445 -0.05197,3.48634 7.38252,0.77593 0.67402,-3.42096 1.25379,-2.68239 4.79562,-5.36824 3.97321,1.29098 0.72436,7.16179 -0.56233,2.90705 -1.46549,3.1638 6.42866,3.71159 2.00718,-2.85105 2.23642,-1.94053 6.56447,-2.95358 3.10463,2.79542 -2.25123,6.83725 -1.69612,2.427 -2.62563,2.29421 4.36324,6.00548 2.99328,-1.78818 2.83235,-0.86312 7.19827,-0.02822 1.69922,3.81651 -4.83756,5.33048 -2.53663,1.5273 -3.33177,1.02792 z"
       style="fill:none;stroke:#000000;stroke-width:2;stroke-miterlimit:4;stroke-dasharray:none"
       inkscape:connector-curvature="0" />
    <circle
       id="path5943"
       style="fill:none;stroke:#000000;stroke-width:2;stroke-miterlimit:4;stroke-dasharray:none"
       cx="0"
       cy="0"
       r="25" />
  </g>
  <g
     style="stroke-width:5.93362999;stroke-miterlimit:4;stroke-dasharray:none"
     inkscape:label="Gear15"
     transform="matrix(0.3370618,0,0,0.3370618,316.94039,561.37171)"
     id="g6578">
    <path
       inkscape:connector-curvature="0"
       style="fill:none;stroke:#000000;stroke-width:5.93362999;stroke-miterlimit:4;stroke-dasharray:none"
       d="m 41.08456,-4.93828 3.46182,-0.41611 2.93854,0.36352 6.58743,2.90203 0,4.17768 -6.58743,2.90203 -2.93854,0.36352 -3.46182,-0.41611 -1.54336,7.26097 3.33177,1.02792 2.53663,1.5273 4.83756,5.33048 -1.69922,3.81651 -7.19827,-0.02822 -2.83235,-0.86312 -2.99328,-1.78818 -4.36324,6.00548 2.62563,2.29421 1.69612,2.427 2.25123,6.83725 -3.10463,2.79542 -6.56447,-2.95358 -2.23642,-1.94053 -2.00718,-2.85105 -6.42866,3.71159 1.46549,3.1638 0.56233,2.90705 -0.72436,7.16179 -3.97321,1.29098 L 9.92705,46.70311 8.67326,44.02072 7.99924,40.59976 0.61672,41.37569 0.66869,44.86203 0,47.74648 l -3.5747,6.248 -4.1548,-0.43669 -2.19755,-6.85468 -0.05437,-2.96045 0.77568,-3.39935 -7.05986,-2.29389 -1.37055,3.20607 -1.78409,2.36309 -5.80694,4.25387 -3.61799,-2.08884 0.78049,-7.15589 1.15446,-2.72662 2.09126,-2.78997 -5.5165,-4.96707 -2.55609,2.37143 -2.591,1.43314 -7.03511,1.52421 -2.45558,-3.37982 3.62357,-6.21978 2.16366,-2.02133 3.04525,-1.69816 -3.01928,-6.78142 -3.29965,1.12676 -2.94991,0.25538 -7.04684,-1.469 -0.86859,-4.08639 5.84011,-4.20821 2.79875,-0.96654 3.47268,-0.31274 0,-7.42318 -3.47268,-0.31274 -2.79875,-0.96654 -5.84011,-4.20821 0.86859,-4.08639 7.04684,-1.469 2.94991,0.25538 3.29965,1.12676 3.01928,-6.78142 -3.04525,-1.69816 -2.16366,-2.02133 -3.62357,-6.21978 2.45558,-3.37982 7.03511,1.52421 2.591,1.43314 2.55609,2.37143 5.5165,-4.96707 -2.09126,-2.78997 -1.15446,-2.72662 -0.78049,-7.15589 3.61799,-2.08884 5.80694,4.25387 1.78409,2.36309 1.37055,3.20607 7.05986,-2.29389 -0.77568,-3.39935 0.05437,-2.96045 2.19755,-6.85468 4.1548,-0.43669 3.5747,6.248 0.66869,2.88445 -0.05197,3.48634 7.38252,0.77593 0.67402,-3.42096 1.25379,-2.68239 4.79562,-5.36824 3.97321,1.29098 0.72436,7.16179 -0.56233,2.90705 -1.46549,3.1638 6.42866,3.71159 2.00718,-2.85105 2.23642,-1.94053 6.56447,-2.95358 3.10463,2.79542 -2.25123,6.83725 -1.69612,2.427 -2.62563,2.29421 4.36324,6.00548 2.99328,-1.78818 2.83235,-0.86312 7.19827,-0.02822 1.69922,3.81651 -4.83756,5.33048 -2.53663,1.5273 -3.33177,1.02792 z"
       id="path6580" />
    <circle
       r="25"
       cy="0"
       cx="0"
       style="fill:none;stroke:#000000;stroke-width:5.93362999;stroke-miterlimit:4;stroke-dasharray:none"
       id="circle6582" />
  </g>
  <g
     style="stroke-width:5.93362999;stroke-miterlimit:4;stroke-dasharray:none"
     id="g6584"
     transform="matrix(0.3370618,0,0,0.3370618,315.41966,534.75899)"
     inkscape:label="Gear40">
    <path
       inkscape:connector-curvature="0"
       id="path6586"
       d="m 120.78729,-6.41942 6.4385,1.42071 6.44244,2.57757 0,4.84228 -6.44244,2.57757 -6.4385,1.42071 -0.48287,6.13549 6.13698,2.41042 5.9599,3.55366 -0.7575,4.78266 -6.76634,1.53802 -6.58148,0.39601 -1.43673,5.98442 5.68436,3.34077 5.3306,4.44224 -1.49634,4.60528 -6.92364,0.4606 -6.5624,-0.63844 -2.35521,5.68599 5.09176,4.18887 4.57006,5.22145 -2.19835,4.31449 -6.91045,-0.62816 -6.38173,-1.65716 -3.2157,5.24754 4.37379,4.93383 3.69698,5.87207 -2.84622,3.91748 -6.7271,-1.70146 -6.04393,-2.63508 -3.997,4.67989 3.54812,5.5573 2.73286,6.37811 -3.424,3.424 -6.37811,-2.73286 -5.5573,-3.54812 -4.67989,3.997 2.63508,6.04393 1.70146,6.7271 -3.91748,2.84622 -5.87207,-3.69698 -4.93383,-4.37379 -5.24754,3.2157 1.65716,6.38173 0.62816,6.91045 -4.31449,2.19835 -5.22145,-4.57006 -4.18887,-5.09176 -5.68599,2.35521 0.63844,6.5624 -0.4606,6.92364 -4.60528,1.49634 -4.44224,-5.3306 -3.34077,-5.68436 -5.98442,1.43673 -0.39601,6.58148 -1.53802,6.76634 -4.78266,0.7575 -3.55366,-5.9599 -2.41042,-6.13698 -6.13549,0.48287 -1.42071,6.4385 -2.57757,6.44244 -4.84228,0 -2.57757,-6.44244 -1.42071,-6.4385 -6.13549,-0.48287 -2.41042,6.13698 -3.55366,5.9599 -4.78266,-0.7575 -1.53802,-6.76634 -0.39601,-6.58148 -5.98442,-1.43673 -3.34077,5.68436 -4.44224,5.3306 -4.60528,-1.49634 -0.4606,-6.92364 0.63844,-6.5624 -5.68599,-2.35521 -4.18887,5.09176 -5.22145,4.57006 -4.31449,-2.19835 0.62816,-6.91045 1.65716,-6.38173 -5.24754,-3.2157 -4.93383,4.37379 -5.87207,3.69698 -3.91748,-2.84622 1.70146,-6.7271 2.63508,-6.04393 -4.67989,-3.997 -5.5573,3.54812 -6.37811,2.73286 -3.424,-3.424 2.73286,-6.37811 3.54812,-5.5573 -3.997,-4.67989 -6.04393,2.63508 -6.7271,1.70146 -2.84622,-3.91748 3.69698,-5.87207 4.37379,-4.93383 -3.2157,-5.24754 -6.38173,1.65716 -6.91045,0.62816 -2.19835,-4.31449 4.57006,-5.22145 5.09176,-4.18887 -2.35521,-5.68599 -6.5624,0.63844 -6.92364,-0.4606 -1.49634,-4.60528 5.3306,-4.44224 5.68436,-3.34077 -1.43673,-5.98442 -6.58148,-0.39601 -6.76634,-1.53802 -0.7575,-4.78266 5.9599,-3.55366 6.13698,-2.41042 -0.48287,-6.13549 -6.4385,-1.42071 -6.44244,-2.57757 0,-4.84228 6.44244,-2.57757 6.4385,-1.42071 0.48287,-6.13549 -6.13698,-2.41042 -5.9599,-3.55366 0.7575,-4.78266 6.76634,-1.53802 6.58148,-0.39601 1.43673,-5.98442 -5.68436,-3.34077 -5.3306,-4.44224 1.49634,-4.60528 6.92364,-0.4606 6.5624,0.63844 2.35521,-5.68599 -5.09176,-4.18887 -4.57006,-5.22145 2.19835,-4.31449 6.91045,0.62816 6.38173,1.65716 3.2157,-5.24754 -4.37379,-4.93383 -3.69698,-5.87207 2.84622,-3.91748 6.7271,1.70146 6.04393,2.63508 3.997,-4.67989 -3.54812,-5.5573 -2.73286,-6.37811 3.424,-3.424 6.37811,2.73286 5.5573,3.54812 4.67989,-3.997 -2.63508,-6.04393 -1.70146,-6.7271 3.91748,-2.84622 5.87207,3.69698 4.93383,4.37379 5.24754,-3.2157 -1.65716,-6.38173 -0.62816,-6.91045 4.31449,-2.19835 5.22145,4.57006 4.18887,5.09176 5.68599,-2.35521 -0.63844,-6.5624 0.4606,-6.92364 4.60528,-1.49634 4.44224,5.3306 3.34077,5.68436 5.98442,-1.43673 0.39601,-6.58148 1.53802,-6.76634 4.78266,-0.7575 3.55366,5.9599 2.41042,6.13698 6.13549,-0.48287 1.42071,-6.4385 2.57757,-6.44244 4.84228,0 2.57757,6.44244 1.42071,6.4385 6.13549,0.48287 2.41042,-6.13698 3.55366,-5.9599 4.78266,0.7575 1.53802,6.76634 0.39601,6.58148 5.98442,1.43673 3.34077,-5.68436 4.44224,-5.3306 4.60528,1.49634 0.4606,6.92364 -0.63844,6.5624 5.68599,2.35521 4.18887,-5.09176 5.22145,-4.57006 4.31449,2.19835 -0.62816,6.91045 -1.65716,6.38173 5.24754,3.2157 4.93383,-4.37379 5.87207,-3.69698 3.91748,2.84622 -1.70146,6.7271 -2.63508,6.04393 4.67989,3.997 5.5573,-3.54812 6.37811,-2.73286 3.424,3.424 -2.73286,6.37811 -3.54812,5.5573 3.997,4.67989 6.04393,-2.63508 6.7271,-1.70146 2.84622,3.91748 -3.69698,5.87207 -4.37379,4.93383 3.2157,5.24754 6.38173,-1.65716 6.91045,-0.62816 2.19835,4.31449 -4.57006,5.22145 -5.09176,4.18887 2.35521,5.68599 6.5624,-0.63844 6.92364,0.4606 1.49634,4.60528 -5.3306,4.44224 -5.68436,3.34077 1.43673,5.98442 6.58148,0.39601 6.76634,1.53802 0.7575,4.78266 -5.9599,3.55366 -6.13698,2.41042 z"
       style="fill:none;stroke:#000000;stroke-width:5.93362999;stroke-miterlimit:4;stroke-dasharray:none" />
    <circle
       r="150"
       cy="0"
       cx="0"
       id="circle6588"
       style="fill:none;stroke:#000000;stroke-width:5.93362999;stroke-miterlimit:4;stroke-dasharray:none" />
  </g>
</svg>
