<?xml version="1.0" encoding="UTF-8" standalone="no"?>
<!-- Created with Inkscape (http://www.inkscape.org/) -->

<svg
   xmlns:dc="http://purl.org/dc/elements/1.1/"
   xmlns:cc="http://creativecommons.org/ns#"
   xmlns:rdf="http://www.w3.org/1999/02/22-rdf-syntax-ns#"
   xmlns:svg="http://www.w3.org/2000/svg"
   xmlns="http://www.w3.org/2000/svg"
   xmlns:sodipodi="http://sodipodi.sourceforge.net/DTD/sodipodi-0.dtd"
   xmlns:inkscape="http://www.inkscape.org/namespaces/inkscape"
   width="120.36247mm"
   height="164.46555mm"
   viewBox="0 0 426.4812 582.75193"
   id="svg2"
   version="1.1"
   inkscape:version="0.91 r13725"
   sodipodi:docname="invertedPendulumModel.svg">
  <sodipodi:namedview
     id="base"
     pagecolor="#ffffff"
     bordercolor="#666666"
     borderopacity="1.0"
     inkscape:pageopacity="0.0"
     inkscape:pageshadow="2"
     inkscape:zoom="0.98994949"
     inkscape:cx="-90.151223"
     inkscape:cy="223.60204"
     inkscape:document-units="px"
     inkscape:current-layer="layer1"
     showgrid="false"
     inkscape:snap-center="true"
     inkscape:window-width="1920"
     inkscape:window-height="1003"
     inkscape:window-x="-9"
     inkscape:window-y="847"
     inkscape:window-maximized="1"
     fit-margin-top="0"
     fit-margin-left="0"
     fit-margin-right="0"
     fit-margin-bottom="0" />
  <defs
     id="defs4">
    <marker
       inkscape:stockid="Arrow1Mstart"
       orient="auto"
       refY="0"
       refX="0"
       id="marker4623"
       style="overflow:visible"
       inkscape:isstock="true">
      <path
         id="path4625"
         d="M 0,0 5,-5 -12.5,0 5,5 0,0 Z"
         style="fill:#000000;fill-opacity:1;fill-rule:evenodd;stroke:#000000;stroke-width:1pt;stroke-opacity:1"
         transform="matrix(0.4,0,0,0.4,4,0)"
         inkscape:connector-curvature="0" />
    </marker>
    <marker
       inkscape:collect="always"
       inkscape:isstock="true"
       style="overflow:visible"
       id="Arrow1Mstart"
       refX="0"
       refY="0"
       orient="auto"
       inkscape:stockid="Arrow1Mstart">
      <path
         transform="matrix(0.4,0,0,0.4,4,0)"
         style="fill:#000000;fill-opacity:1;fill-rule:evenodd;stroke:#000000;stroke-width:1pt;stroke-opacity:1"
         d="M 0,0 5,-5 -12.5,0 5,5 0,0 Z"
         id="path4192"
         inkscape:connector-curvature="0" />
    </marker>
    <marker
       inkscape:isstock="true"
       style="overflow:visible"
       id="Arrow1Lstart"
       refX="0"
       refY="0"
       orient="auto"
       inkscape:stockid="Arrow1Lstart">
      <path
         transform="matrix(0.8,0,0,0.8,10,0)"
         style="fill:#000000;fill-opacity:1;fill-rule:evenodd;stroke:#000000;stroke-width:1pt;stroke-opacity:1"
         d="M 0,0 5,-5 -12.5,0 5,5 0,0 Z"
         id="path4186"
         inkscape:connector-curvature="0" />
    </marker>
  </defs>
  <metadata
     id="metadata7">
    <rdf:RDF>
      <cc:Work
         rdf:about="">
        <dc:format>image/svg+xml</dc:format>
        <dc:type
           rdf:resource="http://purl.org/dc/dcmitype/StillImage" />
        <dc:title />
      </cc:Work>
    </rdf:RDF>
  </metadata>
  <g
     id="layer1"
     inkscape:groupmode="layer"
     inkscape:label="Layer 1"
     transform="translate(-127.28557,-396.63193)">
    <circle
       r="104.04572"
       cy="858.4129"
       cx="352.54324"
       id="path4142"
       style="fill:#000000;fill-opacity:0.19607843;fill-rule:nonzero;stroke:#000000;stroke-width:0.93000001;stroke-miterlimit:4;stroke-dasharray:none;stroke-opacity:1" />
    <circle
       r="40.406101"
       cy="473.5448"
       cx="202.0305"
       id="path4144"
       style="fill:#000000;fill-opacity:0.41111112;fill-rule:nonzero;stroke:#000000;stroke-width:0.93000001;stroke-miterlimit:4;stroke-dasharray:none;stroke-opacity:1" />
    <rect
       transform="matrix(0.9359988,-0.35200319,0.36036631,0.93281087,0,0)"
       y="554.23895"
       x="13.01469"
       height="268.99994"
       width="8.12185"
       id="rect4146"
       style="fill:#70a8da;fill-opacity:1;fill-rule:nonzero;stroke:#000000;stroke-width:0.67636222;stroke-miterlimit:4;stroke-dasharray:none;stroke-opacity:1" />
    <path
       inkscape:connector-curvature="0"
       id="path4148"
       d="m 312.23526,761.90312 40.10217,104.31261 0,0"
       style="fill:none;fill-rule:evenodd;stroke:#000000;stroke-width:1.53392363;stroke-linecap:butt;stroke-linejoin:miter;stroke-miterlimit:4;stroke-dasharray:12.27138912, 6.13569456;stroke-dashoffset:0;stroke-opacity:1" />
    <path
       inkscape:connector-curvature="0"
       id="path4148-6"
       d="m 355.10586,396.63719 -1.08433,466.49448 0,0"
       style="fill:none;fill-rule:evenodd;stroke:#000000;stroke-width:4.52859163;stroke-linecap:butt;stroke-linejoin:miter;stroke-miterlimit:4;stroke-dasharray:18.11436586, 9.05718293;stroke-dashoffset:0;stroke-opacity:1" />
    <path
       sodipodi:open="true"
       d="m 255.69679,579.50523 a 295.2435,295.2435 0 0 1 95.72519,-16.3337"
       sodipodi:end="4.7085912"
       sodipodi:start="4.3781797"
       sodipodi:ry="295.2435"
       sodipodi:rx="295.2435"
       sodipodi:cy="858.4129"
       sodipodi:cx="352.54324"
       sodipodi:type="arc"
       id="path4144-4"
       style="fill:none;fill-opacity:0.2745098;fill-rule:nonzero;stroke:#000000;stroke-width:4;stroke-miterlimit:4;stroke-dasharray:none;stroke-opacity:1;marker-start:url(#Arrow1Mstart)" />
    <path
       inkscape:connector-curvature="0"
       id="path4148-6-6"
       d="m 506.70651,862.14765 -154.45057,-1.40173 0,0"
       style="fill:none;fill-rule:evenodd;stroke:#000000;stroke-width:2.60576367;stroke-linecap:butt;stroke-linejoin:miter;stroke-miterlimit:4;stroke-dasharray:none;stroke-dashoffset:0;stroke-opacity:1;marker-start:url(#marker4623)" />
    <g
       id="g4813"
       transform="translate(14.142136,537.40115)">
      <g
         word-spacing="normal"
         letter-spacing="normal"
         font-size-adjust="none"
         font-stretch="normal"
         font-weight="normal"
         font-variant="normal"
         font-style="normal"
         stroke-miterlimit="10.433"
         xml:space="preserve"
         transform="matrix(1.0629921,0,0,-1.0629921,-186.02362,789.27165)"
         id="content"
         style="font-style:normal;font-variant:normal;font-weight:normal;font-stretch:normal;letter-spacing:normal;word-spacing:normal;text-anchor:start;fill:none;fill-opacity:1;fill-rule:evenodd;stroke:#000000;stroke-linecap:butt;stroke-linejoin:miter;stroke-miterlimit:10.43299961;stroke-dasharray:none;stroke-dashoffset:0;stroke-opacity:1"><path
           id="path4816"
           d="m 459.91,409.14 -0.02,-0.07 -0.01,-0.08 -0.02,-0.07 -0.01,-0.08 -0.04,-0.16 -0.04,-0.16 -0.03,-0.16 -0.04,-0.16 -0.04,-0.16 -0.03,-0.16 -0.02,-0.08 -0.02,-0.07 -0.02,-0.07 -0.01,-0.07 -0.02,-0.07 -0.01,-0.07 -0.01,-0.06 -0.01,-0.06 -0.01,-0.06 -0.01,-0.05 -0.01,-0.05 -0.01,-0.04 -0.01,-0.04 0,-0.04 0,-0.03 0,-0.02 c 0,-0.89 0.7,-1.35 1.43,-1.35 0.61,0 1.5,0.39 1.85,1.39 0.06,0.11 0.65,2.44 0.95,3.69 l 1.1,4.48 c 0.29,1.1 0.59,2.19 0.84,3.35 0.2,0.84 0.61,2.28 0.66,2.48 0.75,1.55 3.39,6.08 8.1,6.08 2.25,0 2.71,-1.84 2.71,-3.48 0,-1.25 -0.36,-2.64 -0.75,-4.14 l -1.39,-5.79 -1,-3.78 c -0.21,-1 -0.66,-2.68 -0.66,-2.93 0,-0.89 0.7,-1.35 1.45,-1.35 1.55,0 1.85,1.25 2.24,2.85 0.7,2.78 2.55,10.06 3,12 0.14,0.65 2.78,6.62 8.22,6.62 2.14,0 2.68,-1.69 2.68,-3.48 0,-2.85 -2.09,-8.52 -3.09,-11.16 -0.45,-1.2 -0.64,-1.75 -0.64,-2.75 0,-2.33 1.73,-4.08 4.08,-4.08 4.69,0 6.53,7.27 6.53,7.67 0,0.5 -0.45,0.5 -0.59,0.5 -0.5,0 -0.5,-0.15 -0.75,-0.9 -0.75,-2.64 -2.35,-6.17 -5.08,-6.17 -0.86,0 -1.21,0.5 -1.21,1.64 0,1.25 0.46,2.45 0.9,3.54 0.95,2.58 3.04,8.11 3.04,10.96 0,3.23 -2,5.32 -5.73,5.32 -3.74,0 -6.27,-2.18 -8.11,-4.82 -0.06,0.65 -0.2,2.34 -1.61,3.53 -1.24,1.04 -2.83,1.29 -4.08,1.29 -4.48,0 -6.92,-3.18 -7.76,-4.32 -0.25,2.84 -2.35,4.32 -4.6,4.32 -2.28,0 -3.23,-1.93 -3.69,-2.82 -0.89,-1.75 -1.54,-4.69 -1.54,-4.85 0,-0.5 0.5,-0.5 0.61,-0.5 0.5,0 0.54,0.07 0.84,1.16 0.84,3.53 1.84,5.92 3.64,5.92 0.8,0 1.55,-0.39 1.55,-2.28 0,-1.05 -0.16,-1.61 -0.8,-4.19 z"
           inkscape:connector-curvature="0"
           style="fill:#000000;stroke-width:0" /><path
           id="path4818"
           d="m 514.47,412.11 -0.12,-0.03 -0.11,-0.02 -0.11,-0.03 -0.1,-0.04 -0.1,-0.03 -0.1,-0.04 -0.09,-0.05 -0.09,-0.05 -0.08,-0.05 -0.08,-0.05 -0.07,-0.06 -0.07,-0.06 -0.07,-0.06 -0.07,-0.07 -0.05,-0.06 -0.06,-0.07 -0.05,-0.07 -0.05,-0.07 -0.05,-0.07 -0.04,-0.08 -0.03,-0.07 -0.04,-0.08 -0.03,-0.07 -0.03,-0.08 -0.02,-0.07 -0.02,-0.08 -0.02,-0.08 -0.01,-0.07 -0.01,-0.08 -0.01,-0.07 0,-0.08 -0.01,-0.07 c 0,-0.94 0.74,-1.28 1.36,-1.28 0.77,0 1.99,0.55 1.99,2.22 0,2.37 -2.72,3.03 -4.6,3.03 -5.23,0 -10.07,-4.8 -10.07,-9.64 0,-3 2.09,-6.06 6.45,-6.06 5.89,0 8.64,3.44 8.64,3.94 0,0.2 -0.31,0.59 -0.6,0.59 -0.2,0 -0.28,-0.08 -0.56,-0.36 -2.72,-3.2 -6.79,-3.2 -7.42,-3.2 -2.5,0 -3.62,1.7 -3.62,3.87 0,1 0.5,4.8 2.31,7.2 1.31,1.72 3.12,2.69 4.87,2.69 0.49,0 2.16,-0.06 3.04,-1.04 z"
           inkscape:connector-curvature="0"
           style="fill:#000000;stroke-width:0" /></g>    </g>
    <g
       id="g4862"
       transform="matrix(0.80177868,0,0,0.80177868,-64.547011,192.24971)">
      <g
         id="g4864"
         transform="matrix(1.0629921,0,0,-1.0629921,-186.02362,789.27165)"
         xml:space="preserve"
         stroke-miterlimit="10.433"
         font-style="normal"
         font-variant="normal"
         font-weight="normal"
         font-stretch="normal"
         font-size-adjust="none"
         letter-spacing="normal"
         word-spacing="normal"
         style="font-style:normal;font-variant:normal;font-weight:normal;font-stretch:normal;letter-spacing:normal;word-spacing:normal;text-anchor:start;fill:none;fill-opacity:1;fill-rule:evenodd;stroke:#000000;stroke-linecap:butt;stroke-linejoin:miter;stroke-miterlimit:10.43299961;stroke-dasharray:none;stroke-dashoffset:0;stroke-opacity:1"><path
           d="m 459.91,409.14 -0.02,-0.07 -0.01,-0.08 -0.02,-0.07 -0.01,-0.08 -0.04,-0.16 -0.04,-0.16 -0.03,-0.16 -0.04,-0.16 -0.04,-0.16 -0.03,-0.16 -0.02,-0.08 -0.02,-0.07 -0.02,-0.07 -0.01,-0.07 -0.02,-0.07 -0.01,-0.07 -0.01,-0.06 -0.01,-0.06 -0.01,-0.06 -0.01,-0.05 -0.01,-0.05 -0.01,-0.04 -0.01,-0.04 0,-0.04 0,-0.03 0,-0.02 c 0,-0.89 0.7,-1.35 1.43,-1.35 0.61,0 1.5,0.39 1.85,1.39 0.06,0.11 0.65,2.44 0.95,3.69 l 1.1,4.48 c 0.29,1.1 0.59,2.19 0.84,3.35 0.2,0.84 0.61,2.28 0.66,2.48 0.75,1.55 3.39,6.08 8.1,6.08 2.25,0 2.71,-1.84 2.71,-3.48 0,-1.25 -0.36,-2.64 -0.75,-4.14 l -1.39,-5.79 -1,-3.78 c -0.21,-1 -0.66,-2.68 -0.66,-2.93 0,-0.89 0.7,-1.35 1.45,-1.35 1.55,0 1.85,1.25 2.24,2.85 0.7,2.78 2.55,10.06 3,12 0.14,0.65 2.78,6.62 8.22,6.62 2.14,0 2.68,-1.69 2.68,-3.48 0,-2.85 -2.09,-8.52 -3.09,-11.16 -0.45,-1.2 -0.64,-1.75 -0.64,-2.75 0,-2.33 1.73,-4.08 4.08,-4.08 4.69,0 6.53,7.27 6.53,7.67 0,0.5 -0.45,0.5 -0.59,0.5 -0.5,0 -0.5,-0.15 -0.75,-0.9 -0.75,-2.64 -2.35,-6.17 -5.08,-6.17 -0.86,0 -1.21,0.5 -1.21,1.64 0,1.25 0.46,2.45 0.9,3.54 0.95,2.58 3.04,8.11 3.04,10.96 0,3.23 -2,5.32 -5.73,5.32 -3.74,0 -6.27,-2.18 -8.11,-4.82 -0.06,0.65 -0.2,2.34 -1.61,3.53 -1.24,1.04 -2.83,1.29 -4.08,1.29 -4.48,0 -6.92,-3.18 -7.76,-4.32 -0.25,2.84 -2.35,4.32 -4.6,4.32 -2.28,0 -3.23,-1.93 -3.69,-2.82 -0.89,-1.75 -1.54,-4.69 -1.54,-4.85 0,-0.5 0.5,-0.5 0.61,-0.5 0.5,0 0.54,0.07 0.84,1.16 0.84,3.53 1.84,5.92 3.64,5.92 0.8,0 1.55,-0.39 1.55,-2.28 0,-1.05 -0.16,-1.61 -0.8,-4.19 z"
           id="path4866"
           inkscape:connector-curvature="0"
           style="fill:#000000;stroke-width:0" /><path
           d="m 501.81,394.51 -0.02,-0.09 -0.02,-0.08 -0.02,-0.09 -0.02,-0.07 -0.03,-0.08 -0.02,-0.07 -0.02,-0.07 -0.02,-0.06 -0.02,-0.06 -0.03,-0.05 -0.03,-0.06 -0.03,-0.05 -0.03,-0.04 -0.03,-0.05 -0.04,-0.04 -0.04,-0.03 -0.04,-0.04 -0.05,-0.03 -0.05,-0.03 -0.06,-0.02 -0.06,-0.03 -0.06,-0.02 -0.07,-0.01 -0.07,-0.02 -0.09,-0.02 -0.04,0 -0.04,-0.01 -0.05,0 -0.04,-0.01 -0.05,0 -0.05,0 -0.05,-0.01 -0.06,0 -0.05,0 -0.06,0 -0.06,-0.01 -0.06,0 -0.06,0 -0.06,0 c -0.46,0 -0.94,0 -0.94,-0.73 0,-0.39 0.31,-0.53 0.48,-0.53 0.91,0 2.06,0.14 3,0.14 1.19,0 2.5,-0.14 3.66,-0.14 0.31,0 0.7,0.11 0.7,0.76 0,0.5 -0.5,0.5 -0.9,0.5 -0.79,0 -1.72,0 -1.72,0.41 0,0.19 0.25,1.09 0.39,1.61 0.42,1.84 0.9,3.73 1.28,5.18 0.42,-0.68 1.5,-2.04 3.59,-2.04 l 0,0.97 c -2.47,0 -3.09,2.68 -3.09,3.03 0,0.14 0.06,0.39 0.09,0.53 l 1.75,7 c 2.02,2.69 3.77,3.2 4.88,3.2 1.36,0 2.54,-1.01 2.54,-3.37 0,-1.44 -0.76,-4.99 -1.81,-7.02 -0.87,-1.7 -2.58,-3.37 -4.36,-3.37 l 0,-0.97 c 4.25,0 8.95,4.7 8.95,9.89 0,4.08 -2.82,5.81 -5.21,5.81 -2.18,0 -4.02,-1.45 -4.96,-2.44 -0.59,1.99 -2.54,2.44 -3.59,2.44 -1.36,0 -2.19,-0.91 -2.75,-1.84 -0.7,-1.19 -1.25,-3.27 -1.25,-3.49 0,-0.45 0.48,-0.45 0.59,-0.45 0.49,0 0.52,0.11 0.77,1.05 0.51,2.03 1.19,3.76 2.55,3.76 0.9,0 1.14,-0.76 1.14,-1.7 0,-0.39 -0.07,-0.84 -0.11,-1.05 z"
           id="path4868"
           inkscape:connector-curvature="0"
           style="fill:#000000;stroke-width:0" /></g>    </g>
    <g
       id="g4920"
       transform="translate(-21.213203,181.82746)">
      <g
         word-spacing="normal"
         letter-spacing="normal"
         font-size-adjust="none"
         font-stretch="normal"
         font-weight="normal"
         font-variant="normal"
         font-style="normal"
         stroke-miterlimit="10.433"
         xml:space="preserve"
         transform="matrix(1.0629921,0,0,-1.0629921,-186.02362,789.27165)"
         id="g4922"
         style="font-style:normal;font-variant:normal;font-weight:normal;font-stretch:normal;letter-spacing:normal;word-spacing:normal;text-anchor:start;fill:none;fill-opacity:1;fill-rule:evenodd;stroke:#000000;stroke-linecap:butt;stroke-linejoin:miter;stroke-miterlimit:10.43299961;stroke-dasharray:none;stroke-dashoffset:0;stroke-opacity:1"><path
           id="path4924"
           d="m 478.19,431.11 0,0.31 -0.01,0.34 -0.02,0.36 -0.02,0.37 -0.03,0.39 -0.04,0.39 -0.04,0.41 -0.06,0.41 -0.07,0.42 -0.07,0.43 -0.09,0.42 -0.1,0.43 -0.12,0.42 -0.12,0.42 -0.14,0.41 -0.16,0.41 -0.17,0.4 -0.18,0.38 -0.2,0.37 -0.22,0.36 -0.23,0.34 -0.25,0.32 -0.28,0.3 -0.29,0.27 -0.31,0.25 -0.16,0.12 -0.17,0.1 -0.17,0.1 -0.18,0.1 -0.18,0.08 -0.19,0.08 -0.19,0.07 -0.2,0.06 -0.21,0.05 -0.21,0.05 -0.22,0.03 -0.22,0.02 -0.23,0.02 -0.23,0 -0.05,-1.09 c 2.44,0 2.73,-3.19 2.73,-6.03 0,-2.44 -0.39,-4.99 -1.59,-9.92 l -10.41,0 c 0.85,3.2 1.85,7.18 3.83,10.72 1.36,2.43 3.19,5.23 5.44,5.23 l 0.05,1.09 c -6.92,0 -14.6,-14.04 -14.6,-25.45 0,-4.69 1.44,-10.22 5.99,-10.22 l 0,1.1 c -1.66,0 -2.71,1.45 -2.71,6.07 0,2.1 0.3,4.99 1.6,9.86 l 10.37,0 c -0.54,-2.28 -1.59,-6.51 -3.5,-10.11 -1.73,-3.39 -3.62,-5.82 -5.76,-5.82 l 0,-1.1 c 7.01,0 14.59,14.3 14.59,25.46 z"
           inkscape:connector-curvature="0"
           style="fill:#000000;stroke-width:0" /><path
           id="path4926"
           d="m 481.53,394.51 -0.02,-0.09 -0.02,-0.08 -0.02,-0.09 -0.02,-0.07 -0.02,-0.08 -0.02,-0.07 -0.03,-0.07 -0.02,-0.06 -0.02,-0.06 -0.03,-0.05 -0.02,-0.06 -0.03,-0.05 -0.04,-0.04 -0.03,-0.05 -0.04,-0.04 -0.04,-0.03 -0.04,-0.04 -0.05,-0.03 -0.05,-0.03 -0.05,-0.02 -0.06,-0.03 -0.07,-0.02 -0.07,-0.01 -0.07,-0.02 -0.08,-0.02 -0.04,0 -0.05,-0.01 -0.04,0 -0.05,-0.01 -0.05,0 -0.05,0 -0.05,-0.01 -0.05,0 -0.06,0 -0.06,0 -0.05,-0.01 -0.07,0 -0.06,0 -0.06,0 c -0.45,0 -0.94,0 -0.94,-0.73 0,-0.39 0.31,-0.53 0.49,-0.53 0.9,0 2.06,0.14 3,0.14 1.18,0 2.5,-0.14 3.65,-0.14 0.31,0 0.7,0.11 0.7,0.76 0,0.5 -0.5,0.5 -0.9,0.5 -0.78,0 -1.72,0 -1.72,0.41 0,0.19 0.25,1.09 0.39,1.61 0.42,1.84 0.91,3.73 1.28,5.18 0.42,-0.68 1.5,-2.04 3.6,-2.04 l 0,0.97 c -2.47,0 -3.1,2.68 -3.1,3.03 0,0.14 0.06,0.39 0.1,0.53 l 1.75,7 c 2.01,2.69 3.76,3.2 4.87,3.2 1.36,0 2.55,-1.01 2.55,-3.37 0,-1.44 -0.77,-4.99 -1.82,-7.02 -0.87,-1.7 -2.57,-3.37 -4.35,-3.37 l 0,-0.97 c 4.25,0 8.95,4.7 8.95,9.89 0,4.08 -2.83,5.81 -5.22,5.81 -2.17,0 -4.02,-1.45 -4.95,-2.44 -0.6,1.99 -2.55,2.44 -3.6,2.44 -1.36,0 -2.18,-0.91 -2.75,-1.84 -0.7,-1.19 -1.25,-3.27 -1.25,-3.49 0,-0.45 0.49,-0.45 0.6,-0.45 0.48,0 0.51,0.11 0.76,1.05 0.52,2.03 1.19,3.76 2.55,3.76 0.91,0 1.14,-0.76 1.14,-1.7 0,-0.39 -0.06,-0.84 -0.11,-1.05 z"
           inkscape:connector-curvature="0"
           style="fill:#000000;stroke-width:0" /></g>    </g>
    <g
       id="g5056"
       transform="matrix(0.76996092,0,0,0.76996092,230.68205,631.55733)">
      <g
         word-spacing="normal"
         letter-spacing="normal"
         font-size-adjust="none"
         font-stretch="normal"
         font-weight="normal"
         font-variant="normal"
         font-style="normal"
         stroke-miterlimit="10.433"
         xml:space="preserve"
         transform="matrix(1.0629921,0,0,-1.0629921,-186.02362,789.27165)"
         id="g5058"
         style="font-style:normal;font-variant:normal;font-weight:normal;font-stretch:normal;letter-spacing:normal;word-spacing:normal;text-anchor:start;fill:none;fill-opacity:1;fill-rule:evenodd;stroke:#000000;stroke-linecap:butt;stroke-linejoin:miter;stroke-miterlimit:10.43299961;stroke-dasharray:none;stroke-dashoffset:0;stroke-opacity:1"><path
           id="path5060"
           d="m 470.61,422.39 4.83,0 c 3.75,0 4.14,-0.8 4.14,-2.24 0,-0.36 0,-0.95 -0.34,-2.44 -0.11,-0.25 -0.16,-0.45 -0.16,-0.56 0,-0.39 0.3,-0.59 0.6,-0.59 0.5,0 0.5,0.15 0.75,1.05 l 2.75,10.81 c 0.14,0.54 0.14,0.65 0.14,0.79 0,0.1 -0.1,0.55 -0.6,0.55 -0.5,0 -0.54,-0.25 -0.75,-1.05 -1.04,-3.87 -2.18,-4.78 -6.42,-4.78 l -4.53,0 3.19,12.66 c 0.43,1.75 0.5,1.94 2.68,1.94 l 6.58,0 c 6.13,0 7.27,-1.64 7.27,-5.47 0,-1.16 0,-1.35 -0.14,-2.7 -0.11,-0.65 -0.11,-0.74 -0.11,-0.9 0,-0.25 0.15,-0.59 0.61,-0.59 0.54,0 0.59,0.3 0.69,1.25 l 1,8.61 c 0.15,1.34 -0.1,1.34 -1.35,1.34 l -24.4,0 c -1,0 -1.5,0 -1.5,-1 0,-0.54 0.45,-0.54 1.39,-0.54 1.84,0 3.23,0 3.23,-0.89 0,-0.21 0,-0.3 -0.25,-1.21 l -6.56,-26.34 c -0.5,-1.95 -0.61,-2.34 -4.55,-2.34 -0.84,0 -1.39,0 -1.39,-0.96 0,-0.59 0.59,-0.59 0.75,-0.59 1.44,0 5.13,0.16 6.58,0.16 1.64,0 5.78,-0.16 7.42,-0.16 0.45,0 1.05,0 1.05,0.95 0,0.39 -0.3,0.49 -0.3,0.55 -0.16,0.05 -0.25,0.05 -1.39,0.05 -1.11,0 -1.36,0 -2.59,0.09 -1.46,0.16 -1.6,0.36 -1.6,1 0,0.09 0,0.41 0.19,1.14 z"
           inkscape:connector-curvature="0"
           style="fill:#000000;stroke-width:0" /><path
           id="path5062"
           d="m 499.48,409.98 3.72,0 c 2.66,0 3.11,-0.42 3.11,-1.56 0,-0.53 0,-0.6 -0.25,-1.58 -0.06,-0.2 -0.11,-0.31 -0.11,-0.41 0,-0.36 0.25,-0.53 0.59,-0.53 0.46,0 0.5,0.17 0.67,0.8 l 1.88,7.39 c 0.03,0.11 0.14,0.62 0.14,0.7 0,0.35 -0.25,0.52 -0.59,0.52 -0.49,0 -0.52,-0.2 -0.69,-0.83 -0.7,-2.72 -1.72,-3.25 -4.67,-3.25 l -3.49,0 2.19,8.75 c 0.28,1.08 0.31,1.19 1.78,1.19 l 5.33,0 c 4.64,0 5.51,-1.11 5.51,-4.02 0,-1.14 -0.13,-1.87 -0.13,-2.15 0,-0.29 0.09,-0.6 0.59,-0.6 0.51,0 0.54,0.31 0.62,0.91 l 0.63,6.06 c 0.09,1.05 -0.14,1.05 -1.02,1.05 l -18.61,0 c -0.65,0 -1.11,0 -1.11,-0.77 0,-0.48 0.43,-0.48 1.11,-0.48 0.05,0 0.71,0 1.33,-0.08 0.74,-0.06 0.8,-0.13 0.8,-0.48 0,-0.24 -0.1,-0.6 -0.14,-0.77 l -4.56,-18.22 c -0.35,-1.36 -0.38,-1.61 -3.1,-1.61 -0.59,0 -1.05,0 -1.05,-0.73 0,-0.35 0.24,-0.52 0.57,-0.52 1,0 3.58,0.14 4.59,0.14 l 2.69,-0.03 c 0.9,0 1.87,-0.11 2.75,-0.11 0.23,0 0.76,0 0.76,0.77 0,0.48 -0.42,0.48 -1.21,0.48 -0.08,0 -0.94,0 -1.82,0.08 -0.73,0.06 -1.08,0.09 -1.08,0.59 0,0.14 0,0.24 0.1,0.63 z"
           inkscape:connector-curvature="0"
           style="fill:#000000;stroke-width:0" /></g>    </g>
    <rect
       transform="matrix(-0.00418899,-0.99999123,0.99999765,0.00216657,0,0)"
       y="123.86637"
       x="-977.59717"
       height="425.19965"
       width="16.410904"
       id="rect4146-7"
       style="fill:#000000;fill-opacity:0.78333321;fill-rule:nonzero;stroke:#000000;stroke-width:1.20875537;stroke-miterlimit:4;stroke-dasharray:none;stroke-opacity:1" />
    <g
       id="g4305"
       transform="matrix(1.7426998,0,0,1.7426998,-52.350135,455.72543)">
      <g
         word-spacing="normal"
         letter-spacing="normal"
         font-size-adjust="none"
         font-stretch="normal"
         font-weight="normal"
         font-variant="normal"
         font-style="normal"
         stroke-miterlimit="10.433"
         xml:space="preserve"
         transform="matrix(0.61946301,0,0,-0.61946301,-108.40603,405.5683)"
         id="content-1"
         style="font-style:normal;font-variant:normal;font-weight:normal;font-stretch:normal;letter-spacing:normal;word-spacing:normal;text-anchor:start;fill:none;fill-opacity:1;fill-rule:evenodd;stroke:#000000;stroke-linecap:butt;stroke-linejoin:miter;stroke-miterlimit:10.43299961;stroke-dasharray:none;stroke-dashoffset:0;stroke-opacity:1"><path
           id="path4308"
           d="m 468.38,440.23 0,0 0,0.01 0,0 0,0.01 0,0.02 0,0.01 -0.01,0.02 0,0.02 0,0.02 -0.01,0.02 0,0.02 -0.01,0.02 -0.01,0.02 0,0.03 -0.02,0.02 -0.01,0.03 -0.01,0.02 -0.02,0.03 -0.02,0.02 -0.02,0.02 -0.02,0.03 -0.01,0.01 -0.02,0.01 -0.01,0.01 -0.01,0.01 -0.02,0.01 -0.01,0.01 -0.02,0.01 -0.02,0.01 -0.02,0.01 -0.01,0.01 -0.02,0 -0.02,0.01 -0.02,0.01 -0.03,0 -0.02,0.01 -0.02,0.01 -0.02,0 -0.03,0 -0.02,0.01 -0.03,0 -0.03,0 -0.03,0.01 -0.03,0 -0.03,0 c -1.14,0 -4.78,-0.41 -6.08,-0.5 -0.39,-0.05 -0.93,-0.1 -0.93,-1.05 0,-0.55 0.48,-0.55 1.23,-0.55 2.39,0 2.45,-0.45 2.45,-0.84 l -0.15,-1 -6.28,-24.91 c -0.14,-0.54 -0.25,-0.9 -0.25,-1.7 0,-2.83 2.2,-4.58 4.53,-4.58 1.65,0 2.89,1 3.75,2.78 0.89,1.91 1.48,4.8 1.48,4.89 0,0.5 -0.43,0.5 -0.59,0.5 -0.5,0 -0.55,-0.2 -0.7,-0.9 -0.85,-3.24 -1.79,-6.17 -3.79,-6.17 -1.5,0 -1.5,1.59 -1.5,2.29 0,1.19 0.07,1.44 0.3,2.39 z"
           inkscape:connector-curvature="0"
           style="fill:#000000;stroke-width:0" /></g>    </g>
  </g>
</svg>
